<svg width="58" height="58" viewBox="0 0 58 58" fill="none" xmlns="http://www.w3.org/2000/svg">
<path fill-rule="evenodd" clip-rule="evenodd" d="M0.548401 29C0.548401 13.2866 13.2866 0.548386 29 0.548386C44.7134 0.548386 57.4516 13.2866 57.4516 29C57.4516 44.7134 44.7134 57.4516 29 57.4516C13.2866 57.4516 0.548401 44.7134 0.548401 29ZM29 4.34193C15.3817 4.34193 4.34195 15.3817 4.34195 29C4.34195 42.6183 15.3817 53.6581 29 53.6581C42.6183 53.6581 53.6581 42.6183 53.6581 29C53.6581 15.3817 42.6183 4.34193 29 4.34193ZM11.929 29C11.929 19.572 19.572 11.929 29 11.929C38.428 11.929 46.071 19.572 46.071 29C46.071 38.428 38.428 46.071 29 46.071C19.572 46.071 11.929 38.428 11.929 29ZM29 15.7226C21.6671 15.7226 15.7226 21.6671 15.7226 29C15.7226 36.3329 21.6671 42.2774 29 42.2774C36.3329 42.2774 42.2774 36.3329 42.2774 29C42.2774 21.6671 36.3329 15.7226 29 15.7226ZM23.3097 29C23.3097 25.8573 25.8573 23.3097 29 23.3097C32.1427 23.3097 34.6903 25.8573 34.6903 29C34.6903 32.1427 32.1427 34.6903 29 34.6903C25.8573 34.6903 23.3097 32.1427 23.3097 29ZM29 27.1032C27.9525 27.1032 27.1032 27.9524 27.1032 29C27.1032 30.0476 27.9525 30.8968 29 30.8968C30.0476 30.8968 30.8968 30.0476 30.8968 29C30.8968 27.9524 30.0476 27.1032 29 27.1032Z" fill="url(#paint0_linear_1218_1179)"/>
<defs>
<linearGradient id="paint0_linear_1218_1179" x1="0.5484" y1="28.3383" x2="48.4835" y2="7.60461" gradientUnits="userSpaceOnUse">
<stop offset="0.13" stop-color="#D62828"/>
<stop offset="0.54" stop-color="#F77F00"/>
<stop offset="0.55" stop-color="#F68000"/>
<stop offset="0.69" stop-color="#F59600"/>
<stop offset="0.84" stop-color="#F4A300"/>
<stop offset="0.97" stop-color="#F4A800"/>
</linearGradient>
</defs>
</svg>
