<svg width="35" height="32" viewBox="0 0 35 32" fill="none" xmlns="http://www.w3.org/2000/svg">
<path fill-rule="evenodd" clip-rule="evenodd" d="M10.5748 19.8776C10.9824 20.2503 11.6432 20.2503 12.0508 19.8776L17.5 14.8955L22.9492 19.8776C23.3568 20.2503 24.0176 20.2503 24.4252 19.8776L25.0116 19.3415C25.4192 18.9689 25.4192 18.3647 25.0115 17.992L18.8254 12.3361C18.8251 12.3358 18.8247 12.3354 18.8244 12.3351L18.238 11.7991C17.8304 11.4264 17.1696 11.4264 16.762 11.7991L16.1756 12.3351C16.1753 12.3354 16.1749 12.3358 16.1746 12.3361L9.98845 17.992C9.58085 18.3647 9.58085 18.9689 9.98845 19.3415L10.5748 19.8776Z" fill="#B0B0B0"/>
</svg>
