<svg width="40" height="41" viewBox="0 0 40 41" fill="none" xmlns="http://www.w3.org/2000/svg">
<path d="M17.2708 33.1911C17.2708 35.7422 15.2027 37.8104 12.6515 37.8104C10.1003 37.8104 8.0322 35.7422 8.0322 33.1911C8.0322 30.6399 10.1003 28.5718 12.6515 28.5718C15.2027 28.5718 17.2708 30.6399 17.2708 33.1911Z" stroke="#F77F00" stroke-width="5"/>
<mask id="path-2-inside-1_1179_7600" fill="white">
<ellipse cx="28.7359" cy="28.181" rx="4.74621" ry="4.7462"/>
</mask>
<path d="M28.4821 28.181C28.4821 28.0408 28.5957 27.9272 28.7359 27.9272V37.9272C34.1186 37.9272 38.4821 33.5637 38.4821 28.181H28.4821ZM28.7359 27.9272C28.8761 27.9272 28.9897 28.0408 28.9897 28.181H18.9897C18.9897 33.5637 23.3532 37.9272 28.7359 37.9272V27.9272ZM28.9897 28.181C28.9897 28.3212 28.8761 28.4348 28.7359 28.4348V18.4348C23.3532 18.4348 18.9897 22.7983 18.9897 28.181H28.9897ZM28.7359 28.4348C28.5957 28.4348 28.4821 28.3212 28.4821 28.181H38.4821C38.4821 22.7983 34.1186 18.4348 28.7359 18.4348V28.4348Z" fill="#F77F00" mask="url(#path-2-inside-1_1179_7600)"/>
<mask id="path-4-inside-2_1179_7600" fill="white">
<ellipse cx="9.75104" cy="8.66876" rx="2.63678" ry="2.63678"/>
</mask>
<ellipse cx="9.75104" cy="8.66876" rx="2.63678" ry="2.63678" fill="#F77F00"/>
<path d="M7.38782 8.66876C7.38782 7.36358 8.44588 6.30554 9.75104 6.30554V16.3055C13.9687 16.3055 17.3878 12.8864 17.3878 8.66876H7.38782ZM9.75104 6.30554C11.0562 6.30554 12.1143 7.36358 12.1143 8.66876H2.11426C2.11426 12.8864 5.53337 16.3055 9.75104 16.3055V6.30554ZM12.1143 8.66876C12.1143 9.97394 11.0562 11.032 9.75104 11.032V1.03198C5.53337 1.03198 2.11426 4.45108 2.11426 8.66876H12.1143ZM9.75104 11.032C8.44588 11.032 7.38782 9.97394 7.38782 8.66876H17.3878C17.3878 4.45108 13.9687 1.03198 9.75104 1.03198V11.032Z" fill="#F77F00" mask="url(#path-4-inside-2_1179_7600)"/>
<path d="M32.0368 9.98727C32.0368 13.7034 29.0242 16.716 25.3081 16.716C21.5919 16.716 18.5793 13.7034 18.5793 9.98727C18.5793 6.2711 21.5919 3.25854 25.3081 3.25854C29.0242 3.25854 32.0368 6.2711 32.0368 9.98727Z" stroke="#F77F00" stroke-width="5"/>
<line x1="13.9209" y1="29.3807" x2="21.8312" y2="15.8453" stroke="#F77F00" stroke-width="5"/>
</svg>
