<svg width="34" height="33" viewBox="0 0 34 33" fill="none" xmlns="http://www.w3.org/2000/svg">
<path fill-rule="evenodd" clip-rule="evenodd" d="M1.04504 1.37326L3.08841 0.760254L4.14036 4.26676H27.6667C30.6122 4.26676 33.0001 6.65457 33.0001 9.60009V23.4668H7.67309L1.04504 1.37326ZM4.78036 6.40009L9.26036 21.3334H30.8667V9.60009C30.8667 7.83278 29.434 6.40009 27.6667 6.40009H4.78036ZM12.7334 27.7334C12.1443 27.7334 11.6667 28.211 11.6667 28.8001C11.6667 29.3892 12.1443 29.8668 12.7334 29.8668C13.3225 29.8668 13.8001 29.3892 13.8001 28.8001C13.8001 28.211 13.3225 27.7334 12.7334 27.7334ZM9.53339 28.8001C9.53339 27.0328 10.9661 25.6001 12.7334 25.6001C14.5007 25.6001 15.9334 27.0328 15.9334 28.8001C15.9334 30.5674 14.5007 32.0001 12.7334 32.0001C10.9661 32.0001 9.53339 30.5674 9.53339 28.8001ZM24.4667 28.8001C24.4667 27.0328 25.8994 25.6001 27.6667 25.6001C29.434 25.6001 30.8667 27.0328 30.8667 28.8001C30.8667 30.5674 29.434 32.0001 27.6667 32.0001C25.8994 32.0001 24.4667 30.5674 24.4667 28.8001ZM27.6667 27.7334C27.0776 27.7334 26.6001 28.211 26.6001 28.8001C26.6001 29.3892 27.0776 29.8668 27.6667 29.8668C28.2558 29.8668 28.7334 29.3892 28.7334 28.8001C28.7334 28.211 28.2558 27.7334 27.6667 27.7334Z" fill="#B0B0B0" stroke="#B0B0B0"/>
</svg>
