<svg width="58" height="58" viewBox="0 0 58 58" fill="none" xmlns="http://www.w3.org/2000/svg">
<path fill-rule="evenodd" clip-rule="evenodd" d="M4.3484 32.8484V40.4484C4.3484 43.5964 6.90038 46.1484 10.0484 46.1484C11.0977 46.1484 11.9484 45.2977 11.9484 44.2484V29.0484C11.9484 27.999 11.0977 27.1484 10.0484 27.1484C6.90038 27.1484 4.3484 29.7004 4.3484 32.8484ZM0.548401 29.0484C0.548401 13.3083 13.3083 0.548386 29.0484 0.548386C44.7885 0.548386 57.5484 13.3083 57.5484 29.0484V40.4484C57.5484 45.1005 54.2046 48.9715 49.7893 49.7892C48.9716 54.2045 45.1005 57.5484 40.4484 57.5484H30.9484V53.7484H40.4484C43.077 53.7484 45.29 51.9691 45.9487 49.5492C43.8398 48.7132 42.3484 46.6549 42.3484 44.2484V29.0484C42.3484 25.9004 44.9004 23.3484 48.0484 23.3484C50.0421 23.3484 51.8923 23.9625 53.4202 25.0119C51.4935 13.2906 41.3152 4.34839 29.0484 4.34839C16.7816 4.34839 6.60332 13.2905 4.6766 25.0119C6.20453 23.9625 8.05475 23.3484 10.0484 23.3484C13.1964 23.3484 15.7484 25.9004 15.7484 29.0484V44.2484C15.7484 47.3964 13.1964 49.9484 10.0484 49.9484C4.8017 49.9484 0.548401 45.6951 0.548401 40.4484V29.0484ZM53.7484 32.8484C53.7484 29.7004 51.1964 27.1484 48.0484 27.1484C46.9991 27.1484 46.1484 27.999 46.1484 29.0484V44.2484C46.1484 45.2977 46.9991 46.1484 48.0484 46.1484C51.1964 46.1484 53.7484 43.5964 53.7484 40.4484V32.8484Z" fill="url(#paint0_linear_1218_225)"/>
<defs>
<linearGradient id="paint0_linear_1218_225" x1="0.5484" y1="28.3856" x2="48.565" y2="7.61661" gradientUnits="userSpaceOnUse">
<stop offset="0.13" stop-color="#D62828"/>
<stop offset="0.54" stop-color="#F77F00"/>
<stop offset="0.55" stop-color="#F68000"/>
<stop offset="0.69" stop-color="#F59600"/>
<stop offset="0.84" stop-color="#F4A300"/>
<stop offset="0.97" stop-color="#F4A800"/>
</linearGradient>
</defs>
</svg>
