<svg width="57" height="58" viewBox="0 0 57 58" fill="none" xmlns="http://www.w3.org/2000/svg">
<path d="M28.5077 51.0268C20.9241 51.0268 13.8492 47.5741 7.48337 40.7767C5.495 38.6496 3.707 36.3529 2.1348 33.9176C1.4566 32.8848 0.824635 31.8213 0.254327 30.7269C-0.0847756 30.0641 -0.0847756 29.278 0.254327 28.5998C0.824635 27.5054 1.4566 26.4419 2.1348 25.4092C3.707 22.9584 5.495 20.6617 7.48337 18.5501C13.8647 11.7526 20.9396 8.29993 28.5077 8.29993C36.0759 8.29993 43.1662 11.7526 49.532 18.5501C51.5204 20.6772 53.3084 22.9738 54.8806 25.4092C55.5588 26.4419 56.1908 27.5054 56.7457 28.5998C57.0848 29.2626 57.0848 30.0641 56.7457 30.7269C56.1754 31.8213 55.5588 32.8848 54.8806 33.9176C53.3084 36.3683 51.5204 38.665 49.532 40.7767C43.1508 47.5741 36.0759 51.0268 28.5077 51.0268ZM28.5077 13.0165C22.296 13.0165 16.3925 15.9606 10.936 21.7715C9.14805 23.6828 7.52961 25.7637 6.11155 27.9679C5.7262 28.569 5.3871 29.1239 5.07883 29.648C5.37169 30.1566 5.71079 30.7115 6.11155 31.3281C7.52961 33.5322 9.14805 35.6131 10.936 37.5244C16.3925 43.3354 22.296 46.2794 28.5077 46.2794C34.7194 46.2794 40.6229 43.3354 46.0794 37.5244C47.8674 35.6131 49.4858 33.5322 50.9039 31.3281C51.2892 30.7269 51.6283 30.172 51.9366 29.648C51.6283 29.1239 51.2892 28.5536 50.9039 27.9679C49.4858 25.7637 47.8674 23.6828 46.0794 21.7715C40.6229 15.9606 34.7194 13.0165 28.5077 13.0165ZM28.5077 39.1428C23.267 39.1428 19.0128 34.8886 19.0128 29.648C19.0128 24.4073 23.267 20.1531 28.5077 20.1531C33.7484 20.1531 38.0026 24.4073 38.0026 29.648C38.0026 34.8886 33.7484 39.1428 28.5077 39.1428ZM28.5077 24.9005C25.8874 24.9005 23.7603 27.0276 23.7603 29.648C23.7603 32.2683 25.8874 34.3954 28.5077 34.3954C31.128 34.3954 33.2551 32.2683 33.2551 29.648C33.2551 27.0276 31.128 24.9005 28.5077 24.9005Z" fill="#F77F00"/>
<mask id="mask0_1216_431" style="mask-type:luminance" maskUnits="userSpaceOnUse" x="0" y="8" width="57" height="44">
<path d="M28.5077 51.0268C20.9241 51.0268 13.8492 47.5741 7.48337 40.7767C5.495 38.6496 3.707 36.3529 2.1348 33.9176C1.4566 32.8848 0.824635 31.8213 0.254327 30.7269C-0.0847756 30.0641 -0.0847756 29.278 0.254327 28.5998C0.824635 27.5054 1.4566 26.4419 2.1348 25.4092C3.707 22.9584 5.495 20.6617 7.48337 18.5501C13.8647 11.7526 20.9396 8.29993 28.5077 8.29993C36.0759 8.29993 43.1662 11.7526 49.532 18.5501C51.5204 20.6772 53.3084 22.9738 54.8806 25.4092C55.5588 26.4419 56.1908 27.5054 56.7457 28.5998C57.0848 29.2626 57.0848 30.0641 56.7457 30.7269C56.1754 31.8213 55.5588 32.8848 54.8806 33.9176C53.3084 36.3683 51.5204 38.665 49.532 40.7767C43.1508 47.5741 36.0759 51.0268 28.5077 51.0268ZM28.5077 13.0165C22.296 13.0165 16.3925 15.9606 10.936 21.7715C9.14805 23.6828 7.52961 25.7637 6.11155 27.9679C5.7262 28.569 5.3871 29.1239 5.07883 29.648C5.37169 30.1566 5.71079 30.7115 6.11155 31.3281C7.52961 33.5322 9.14805 35.6131 10.936 37.5244C16.3925 43.3354 22.296 46.2794 28.5077 46.2794C34.7194 46.2794 40.6229 43.3354 46.0794 37.5244C47.8674 35.6131 49.4858 33.5322 50.9039 31.3281C51.2892 30.7269 51.6283 30.172 51.9366 29.648C51.6283 29.1239 51.2892 28.5536 50.9039 27.9679C49.4858 25.7637 47.8674 23.6828 46.0794 21.7715C40.6229 15.9606 34.7194 13.0165 28.5077 13.0165ZM28.5077 39.1428C23.267 39.1428 19.0128 34.8886 19.0128 29.648C19.0128 24.4073 23.267 20.1531 28.5077 20.1531C33.7484 20.1531 38.0026 24.4073 38.0026 29.648C38.0026 34.8886 33.7484 39.1428 28.5077 39.1428ZM28.5077 24.9005C25.8874 24.9005 23.7603 27.0276 23.7603 29.648C23.7603 32.2683 25.8874 34.3954 28.5077 34.3954C31.128 34.3954 33.2551 32.2683 33.2551 29.648C33.2551 27.0276 31.128 24.9005 28.5077 24.9005Z" fill="white"/>
</mask>
<g mask="url(#mask0_1216_431)">
<path d="M57.0077 1.14783H0.00766754V58.1478H57.0077V1.14783Z" fill="#F77F00"/>
</g>
</svg>
