<svg width="33" height="33" viewBox="0 0 33 33" fill="none" xmlns="http://www.w3.org/2000/svg">
<g clip-path="url(#clip0_1219_5164)">
<path d="M32.25 16.5C32.25 7.38711 25.0867 0 16.25 0C7.41326 0 0.25 7.38711 0.25 16.5C0.25 24.7353 6.10007 31.5627 13.7493 32.7996V21.2691H9.68644V16.5H13.7493V12.8651C13.7493 8.72911 16.1386 6.446 19.7937 6.446C21.5454 6.446 23.3753 6.76867 23.3753 6.76867V10.8289H21.3581C19.3718 10.8289 18.7507 12.1 18.7507 13.4053V16.5H23.1881L22.4793 21.2691H18.7507V32.7996C26.3999 31.5627 32.25 24.7353 32.25 16.5Z" fill="black"/>
<path d="M22.4769 21.2693L23.1857 16.5002H18.7483V13.4055C18.7483 12.1002 19.367 10.8291 21.3557 10.8291H23.3729V6.76883C23.3729 6.76883 21.543 6.44617 19.7913 6.44617C16.1362 6.44617 13.7468 8.72928 13.7468 12.8653V16.5002H9.68402V21.2693H13.7468V32.7997C14.5622 32.9317 15.3966 33.0002 16.2476 33.0002C17.0985 33.0002 17.9329 32.9317 18.7483 32.7997V21.2693H22.4769Z" fill="white"/>
</g>
<defs>
<clipPath id="clip0_1219_5164">
<rect width="32" height="33" fill="white" transform="translate(0.25)"/>
</clipPath>
</defs>
</svg>
