<svg width="40" height="41" viewBox="0 0 40 41" fill="none" xmlns="http://www.w3.org/2000/svg">
<path d="M10.4708 16.9543C7.91366 19.7344 6.64718 23.6668 7.34241 27.3997L7.34247 27.4C7.84862 30.1196 8.89449 32.2256 10.3808 33.8297C11.8706 35.4374 13.9201 36.667 16.6266 37.4444C16.998 37.5509 17.3109 37.6121 17.7129 37.6908C17.8824 37.7239 18.0677 37.7602 18.28 37.8043H20.6338C20.831 37.7451 21.0063 37.7135 21.1438 37.6949C21.2942 37.6746 21.4357 37.6661 21.4849 37.6632C21.489 37.6629 21.4925 37.6627 21.4953 37.6625C21.4999 37.6622 21.504 37.662 21.5077 37.6617C27.3873 36.809 31.9349 31.632 32.0347 25.7331C32.091 22.2788 31.023 19.2179 28.9096 16.4188L10.4708 16.9543ZM10.4708 16.9543C10.5478 17.1424 10.6312 17.3292 10.7216 17.5143C11.5238 19.1565 12.8104 20.5265 14.6974 21.4972L18.341 23.3715V19.2741L18.341 19.1828C18.3409 17.4911 18.3409 16.106 18.4967 14.7438L10.4708 16.9543ZM21.6145 5.55485C21.396 5.85339 21.1897 6.16709 20.9938 6.49605L20.9924 6.49839C19.543 8.92626 18.8498 11.6743 18.4969 14.7426L21.6145 5.55485ZM21.6145 5.55485C22.2531 7.47197 23.2486 9.17757 24.4182 10.7065L21.6145 5.55485ZM24.4191 10.7077C25.1328 11.6417 25.8654 12.5576 26.5777 13.4482C26.6207 13.502 26.6637 13.5557 26.7066 13.6094C27.466 14.559 28.202 15.4822 28.9092 16.4183L24.4191 10.7077ZM4.88484 27.8574L4.88476 27.8574L4.88484 27.8574Z" stroke="#F4A800" stroke-width="5"/>
</svg>
