<svg width="33" height="32" viewBox="0 0 33 32" fill="none" xmlns="http://www.w3.org/2000/svg">
<path d="M16.38 31.86C7.66 31.86 0.54 24.78 0.54 16.02C0.54 7.26 7.66 0.179999 16.38 0.179999C25.14 0.179999 32.22 7.26 32.22 16.02C32.22 24.78 25.14 31.86 16.38 31.86ZM16.38 29.1C23.62 29.1 29.46 23.26 29.46 16.02C29.46 8.78 23.62 2.94 16.38 2.94C9.14 2.94 3.3 8.78 3.3 16.02C3.3 23.26 9.14 29.1 16.38 29.1ZM16.38 19.58C14.42 19.58 12.82 17.98 12.82 16.02C12.82 14.06 14.42 12.46 16.38 12.46C18.34 12.46 19.94 14.06 19.94 16.02C19.94 17.98 18.34 19.58 16.38 19.58Z" fill="#767676"/>
</svg>
