<svg width="25" height="25" viewBox="0 0 25 25" fill="none" xmlns="http://www.w3.org/2000/svg">
<path fill-rule="evenodd" clip-rule="evenodd" d="M12.6003 18.5361C12.0601 18.5361 11.6221 18.0981 11.6221 17.5579V13.6187H7.7127C7.16969 13.6187 6.72949 13.1785 6.72949 12.6355C6.72949 12.0925 7.16969 11.6523 7.7127 11.6523H11.6221V7.71311C11.6221 7.17284 12.0601 6.73486 12.6003 6.73486C13.1406 6.73486 13.5786 7.17284 13.5786 7.71311V11.6523H17.488C18.031 11.6523 18.4712 12.0925 18.4712 12.6355C18.4712 13.1785 18.031 13.6187 17.488 13.6187H13.5786V17.5579C13.5786 18.0981 13.1406 18.5361 12.6003 18.5361Z" fill="white"/>
</svg>
