<svg width="91" height="91" viewBox="0 0 91 91" fill="none" xmlns="http://www.w3.org/2000/svg">
<path fill-rule="evenodd" clip-rule="evenodd" d="M35.8443 77.6258C34.7648 77.7457 33.6853 77.7857 32.6457 77.7857C14.8936 77.7857 0.5 63.3934 0.5 45.6429C0.5 27.8923 14.8936 13.5 32.6457 13.5C33.7252 13.5 34.8048 13.54 35.8443 13.6599V23.2948C34.7648 23.1748 33.6853 23.0949 32.6457 23.1349C20.2112 23.1349 10.1357 33.2095 10.1357 45.6429C10.1357 58.0762 20.2112 68.1509 32.6457 68.1509C33.7252 68.1509 34.8048 68.1509 35.8443 67.9909V77.6258Z" fill="#F77F00"/>
<path fill-rule="evenodd" clip-rule="evenodd" d="M90.4996 77.6258C89.42 77.7457 88.3405 77.7857 87.301 77.7857C69.5489 77.7857 55.1553 63.3934 55.1553 45.6429C55.1553 27.8923 69.5489 13.5 87.301 13.5C88.3805 13.5 89.46 13.54 90.4996 13.6599V23.2948C89.42 23.1748 88.3405 23.0949 87.301 23.1349C76.7457 23.1349 67.5897 30.4909 65.3108 40.8054H84.0624V50.4403H65.3108C67.5897 60.7548 76.7057 68.1109 87.301 68.1109C88.3805 68.1109 89.46 68.1109 90.4996 67.951V77.5858V77.6258Z" fill="#F77F00"/>
</svg>
