<svg width="44" height="29" viewBox="0 0 44 29" fill="none" xmlns="http://www.w3.org/2000/svg">
<path d="M5.04464 28.5439H3.27249C2.56748 28.5439 1.89135 28.2638 1.39283 27.7653C0.89432 27.2668 0.614258 26.5907 0.614258 25.8857L0.614258 2.84768C0.614258 2.14268 0.89432 1.46654 1.39283 0.96803C1.89135 0.469515 2.56748 0.189453 3.27249 0.189453H36.9434V1.9616H3.27249C3.03748 1.9616 2.81211 2.05496 2.64594 2.22113C2.47976 2.3873 2.38641 2.61268 2.38641 2.84768V25.8857C2.38641 26.1207 2.47976 26.346 2.64594 26.5122C2.81211 26.6784 3.03748 26.7717 3.27249 26.7717H5.04464V28.5439Z" fill="#535353"/>
<path d="M40.4883 28.5439H6.81738V26.7717H40.4883C40.7233 26.7717 40.9486 26.6784 41.1148 26.5122C41.281 26.346 41.3743 26.1207 41.3743 25.8857V2.84768C41.3743 2.61268 41.281 2.3873 41.1148 2.22113C40.9486 2.05496 40.7233 1.9616 40.4883 1.9616H38.7161V0.189453H40.4883C41.1933 0.189453 41.8694 0.469515 42.3679 0.96803C42.8664 1.46654 43.1465 2.14268 43.1465 2.84768V25.8857C43.1465 26.5907 42.8664 27.2668 42.3679 27.7653C41.8694 28.2638 41.1933 28.5439 40.4883 28.5439Z" fill="#535353"/>
<path d="M28.9685 21.4555C27.5665 21.4555 26.196 21.0398 25.0303 20.2609C23.8646 19.482 22.956 18.3749 22.4195 17.0796C21.883 15.7844 21.7426 14.3591 22.0161 12.984C22.2896 11.609 22.9647 10.3459 23.9561 9.35453C24.9475 8.36317 26.2105 7.68804 27.5856 7.41453C28.9606 7.14101 30.3859 7.28139 31.6812 7.81791C32.9765 8.35443 34.0836 9.263 34.8625 10.4287C35.6414 11.5944 36.0571 12.9649 36.0571 14.3669C36.055 16.2463 35.3075 18.0481 33.9786 19.377C32.6497 20.7059 30.8479 21.4534 28.9685 21.4555ZM28.9685 9.05048C27.917 9.05048 26.8891 9.36228 26.0148 9.94646C25.1405 10.5306 24.4591 11.361 24.0567 12.3324C23.6543 13.3039 23.5491 14.3728 23.7542 15.4041C23.9593 16.4354 24.4657 17.3827 25.2092 18.1262C25.9527 18.8698 26.9 19.3761 27.9313 19.5812C28.9626 19.7864 30.0316 19.6811 31.003 19.2787C31.9745 18.8763 32.8048 18.1949 33.389 17.3206C33.9731 16.4463 34.285 15.4184 34.285 14.3669C34.2835 12.9574 33.723 11.6059 32.7262 10.6092C31.7295 9.61246 30.3781 9.05188 28.9685 9.05048Z" fill="#535353"/>
<path d="M28.9679 24.9997C26.8649 24.9997 24.8091 24.3761 23.0605 23.2077C21.312 22.0394 19.9491 20.3788 19.1443 18.4358C18.3396 16.4929 18.129 14.355 18.5393 12.2924C18.9495 10.2298 19.9622 8.33524 21.4493 6.8482C22.9363 5.36116 24.8309 4.34847 26.8935 3.9382C28.9561 3.52793 31.094 3.73849 33.0369 4.54327C34.9798 5.34805 36.6405 6.7109 37.8088 8.45947C38.9772 10.208 39.6008 12.2638 39.6008 14.3668C39.5977 17.1859 38.4765 19.8886 36.4831 21.882C34.4897 23.8754 31.787 24.9967 28.9679 24.9997ZM28.9679 5.50604C27.2154 5.50604 25.5022 6.02572 24.0451 6.99935C22.588 7.97298 21.4523 9.35685 20.7816 10.9759C20.111 12.595 19.9355 14.3766 20.2774 16.0955C20.6193 17.8143 21.4632 19.3931 22.7024 20.6323C23.9416 21.8715 25.5204 22.7154 27.2392 23.0573C28.958 23.3992 30.7397 23.2237 32.3587 22.5531C33.9778 21.8824 35.3617 20.7467 36.3353 19.2896C37.309 17.8324 37.8286 16.1193 37.8286 14.3668C37.8261 12.0176 36.8917 9.76531 35.2305 8.10415C33.5694 6.44299 31.3171 5.50862 28.9679 5.50604Z" fill="#535353"/>
<path d="M28.9688 17.0252C28.443 17.0252 27.9291 16.8693 27.4919 16.5772C27.0548 16.2851 26.7141 15.87 26.5129 15.3842C26.3117 14.8985 26.2591 14.364 26.3616 13.8484C26.4642 13.3327 26.7174 12.8591 27.0891 12.4873C27.4609 12.1156 27.9345 11.8624 28.4502 11.7598C28.9658 11.6573 29.5003 11.7099 29.986 11.9111C30.4718 12.1123 30.8869 12.453 31.179 12.8901C31.4711 13.3273 31.627 13.8412 31.627 14.367C31.627 15.072 31.3469 15.7481 30.8484 16.2466C30.3499 16.7451 29.6738 17.0252 28.9688 17.0252ZM28.9688 13.4809C28.7935 13.4809 28.6222 13.5329 28.4765 13.6302C28.3308 13.7276 28.2172 13.866 28.1501 14.0279C28.0831 14.1898 28.0655 14.368 28.0997 14.5398C28.1339 14.7117 28.2183 14.8696 28.3422 14.9935C28.4661 15.1174 28.624 15.2018 28.7959 15.236C28.9678 15.2702 29.146 15.2527 29.3079 15.1856C29.4698 15.1185 29.6082 15.005 29.7055 14.8592C29.8029 14.7135 29.8549 14.5422 29.8549 14.367C29.8549 14.132 29.7615 13.9066 29.5953 13.7404C29.4292 13.5742 29.2038 13.4809 28.9688 13.4809Z" fill="#535353"/>
<path d="M29.2227 12.856L35.4239 6.65467L36.6769 7.90758L30.4756 14.1089L29.2227 12.856Z" fill="#535353"/>
<path d="M21.248 20.8286L27.4493 14.6273L28.7022 15.8802L22.501 22.0815L21.248 20.8286Z" fill="#535353"/>
<path d="M29.2217 15.8806L30.4746 14.6277L36.6759 20.829L35.423 22.0819L29.2217 15.8806Z" fill="#535353"/>
<path d="M21.25 7.90576L22.5029 6.65285L28.7042 12.8541L27.4513 14.107L21.25 7.90576Z" fill="#535353"/>
<path d="M13.905 10.8225H5.04428C4.80928 10.8225 4.5839 10.7291 4.41773 10.563C4.25156 10.3968 4.1582 10.1714 4.1582 9.93642V4.61996C4.1582 4.38496 4.25156 4.15958 4.41773 3.99341C4.5839 3.82724 4.80928 3.73389 5.04428 3.73389H13.905C14.14 3.73389 14.3654 3.82724 14.5316 3.99341C14.6978 4.15958 14.7911 4.38496 14.7911 4.61996V9.93642C14.7911 10.1714 14.6978 10.3968 14.5316 10.563C14.3654 10.7291 14.14 10.8225 13.905 10.8225ZM5.93035 9.05034H13.019V5.50604H5.93035V9.05034Z" fill="#535353"/>
<path d="M6.81738 4.62012H8.58953V9.93657H6.81738V4.62012Z" fill="#535353"/>
<path d="M10.3604 4.62012H12.1325V9.93657H10.3604V4.62012Z" fill="#535353"/>
<path d="M13.905 24.9996H5.04428C4.80928 24.9996 4.5839 24.9062 4.41773 24.74C4.25156 24.5739 4.1582 24.3485 4.1582 24.1135V20.5692C4.1582 20.3342 4.25156 20.1088 4.41773 19.9426C4.5839 19.7765 4.80928 19.6831 5.04428 19.6831H13.905C14.14 19.6831 14.3654 19.7765 14.5316 19.9426C14.6978 20.1088 14.7911 20.3342 14.7911 20.5692V24.1135C14.7911 24.3485 14.6978 24.5739 14.5316 24.74C14.3654 24.9062 14.14 24.9996 13.905 24.9996ZM5.93035 23.2274H13.019V21.4553H5.93035V23.2274Z" fill="#535353"/>
<path d="M8.58887 20.5696H10.361V24.1139H8.58887V20.5696Z" fill="#535353"/>
</svg>
