<svg width="33" height="32" viewBox="0 0 33 32" fill="none" xmlns="http://www.w3.org/2000/svg">
<path d="M31.4512 0.118164H27.7287C27.2148 0.118164 26.7981 0.534828 26.7981 1.04877V1.97938H23.9443C23.4303 1.97938 23.0137 2.39604 23.0137 2.90998C23.0137 3.42393 23.4303 3.84059 23.9443 3.84059H26.7981V4.7712C26.7981 5.28514 27.2148 5.7018 27.7287 5.7018H28.6594V8.55566C28.6594 9.06961 29.076 9.48627 29.59 9.48627C30.1039 9.48627 30.5206 9.06961 30.5206 8.55566V5.7018H31.4512C31.9651 5.7018 32.3818 5.28514 32.3818 4.7712V1.04877C32.3818 0.534828 31.9651 0.118164 31.4512 0.118164ZM30.5206 3.84059H28.6594V1.97938H30.5206V3.84059Z" fill="#535353"/>
<path d="M31.4513 26.2992H30.5207V23.4454C30.5207 22.9314 30.104 22.5148 29.5901 22.5148C29.0761 22.5148 28.6595 22.9314 28.6595 23.4454V26.2992H27.7289C27.2149 26.2992 26.7983 26.7159 26.7983 27.2298V28.1604H21.1526V12.6635L23.0138 10.8023V12.2781C23.0138 12.792 23.4305 13.2087 23.9444 13.2087C24.4583 13.2087 24.875 12.792 24.875 12.2781V8.55597C24.8752 8.03936 24.4526 7.62481 23.9441 7.62506H20.222C19.708 7.62506 19.2914 8.04172 19.2914 8.55566C19.2914 9.06961 19.708 9.48627 20.222 9.48627H21.6977L19.8365 11.3475H4.33961V5.7018H5.27022C5.78416 5.7018 6.20083 5.28514 6.20083 4.7712V3.84059H9.05469C9.56863 3.84059 9.98529 3.42393 9.98529 2.90998C9.98529 2.39604 9.56863 1.97938 9.05469 1.97938H6.20083V1.04877C6.20083 0.534828 5.78416 0.118164 5.27022 0.118164H1.54779C1.03385 0.118164 0.617188 0.534828 0.617188 1.04877V4.7712C0.617188 5.28514 1.03385 5.7018 1.54779 5.7018H2.4784V26.2992H1.54779C1.03385 26.2992 0.617188 26.7159 0.617188 27.2298V30.9523C0.617188 31.4662 1.03385 31.8829 1.54779 31.8829H5.27022C5.78416 31.8829 6.20083 31.4662 6.20083 30.9523V30.0217H26.7983V30.9523C26.7983 31.4662 27.2149 31.8829 27.7289 31.8829H31.4513C31.9652 31.8829 32.3819 31.4662 32.3819 30.9523V27.2298C32.3819 26.7159 31.9652 26.2992 31.4513 26.2992ZM2.4784 1.97938H4.33961V3.84059H2.4784V1.97938ZM4.33961 30.0217H2.4784V28.1604H4.33961V30.0217ZM5.27022 26.2992H4.33961V13.2087H17.9753L9.98529 21.1987V19.7229C9.98529 19.209 9.56863 18.7923 9.05469 18.7923C8.54074 18.7923 8.12408 19.209 8.12408 19.7229V23.4451C8.12383 23.9509 8.53677 24.376 9.05469 24.376H12.7771C13.2911 24.376 13.7077 23.9593 13.7077 23.4454C13.7077 22.9314 13.2911 22.5148 12.7771 22.5148H11.3014L19.2914 14.5248V28.1604H6.20083V27.2298C6.20083 26.7159 5.78416 26.2992 5.27022 26.2992ZM30.5207 30.0217H28.6595V28.1604H30.5207V30.0217Z" fill="#535353"/>
<path d="M12.7763 3.84046H14.6375C15.1515 3.84046 15.5681 3.4238 15.5681 2.90985C15.5681 2.39591 15.1515 1.97925 14.6375 1.97925H12.7763C12.2624 1.97925 11.8457 2.39591 11.8457 2.90985C11.8457 3.4238 12.2624 3.84046 12.7763 3.84046Z" fill="#535353"/>
<path d="M18.3613 3.84046H20.2225C20.7364 3.84046 21.1531 3.4238 21.1531 2.90985C21.1531 2.39591 20.7364 1.97925 20.2225 1.97925H18.3613C17.8473 1.97925 17.4307 2.39591 17.4307 2.90985C17.4307 3.4238 17.8473 3.84046 18.3613 3.84046Z" fill="#535353"/>
<path d="M29.5898 15.0698C30.1037 15.0698 30.5204 14.6532 30.5204 14.1392V12.278C30.5204 11.7641 30.1037 11.3474 29.5898 11.3474C29.0758 11.3474 28.6592 11.7641 28.6592 12.278V14.1392C28.6592 14.6532 29.0758 15.0698 29.5898 15.0698Z" fill="#535353"/>
<path d="M28.6592 19.7227C28.6592 20.2367 29.0758 20.6533 29.5898 20.6533C30.1037 20.6533 30.5204 20.2367 30.5204 19.7227V17.8615C30.5204 17.3476 30.1037 16.9309 29.5898 16.9309C29.0758 16.9309 28.6592 17.3476 28.6592 17.8615V19.7227Z" fill="#535353"/>
</svg>
