<svg width="86" height="86" viewBox="0 0 86 86" fill="none" xmlns="http://www.w3.org/2000/svg">
<path d="M44.4796 2.95985C37.8361 2.95985 31.2867 4.56048 25.4171 7.60248L18.5541 0.739104C17.9471 0.131781 17.0725 -0.124873 16.2336 0.0577786C15.3947 0.24043 14.7061 0.837326 14.4063 1.64193L10.9406 10.9408L1.64187 14.4063C0.83726 14.7062 0.240363 15.3948 0.0577121 16.2337C-0.124771 17.0726 0.131714 17.947 0.739038 18.5541L7.60225 25.4175C4.56025 31.2869 2.95961 37.8363 2.95961 44.4798C2.95961 67.3741 21.5853 86 44.4796 86C67.3739 86 86 67.3741 86 44.4798C86 21.5856 67.3739 2.95985 44.4796 2.95985ZM44.4796 58.1447C52.0146 58.1447 58.1447 52.0148 58.1447 44.4798C58.1447 36.9449 52.0146 30.815 44.4796 30.815C41.6218 30.815 38.9673 31.6983 36.7716 33.2041L30.4281 26.8606C34.2848 23.7787 39.1705 21.9329 44.4796 21.9329C56.912 21.9329 67.0266 32.0475 67.0266 44.4798C67.0266 56.9122 56.912 67.0268 44.4796 67.0268C32.0472 67.0268 21.9328 56.9122 21.9328 44.4798C21.9328 39.1707 23.7785 34.285 26.8604 30.4283L33.2039 36.7718C31.6981 38.9675 30.8148 41.622 30.8148 44.4798C30.8148 52.0146 36.9449 58.1447 44.4796 58.1447ZM46.2636 42.6959L40.4376 36.8699C41.644 36.2266 43.0198 35.8604 44.4796 35.8604C49.2324 35.8604 53.0991 39.727 53.0991 44.4797C53.0991 49.2323 49.2324 53.0989 44.4796 53.0989C39.727 53.0989 35.8604 49.2323 35.8604 44.4797C35.8604 43.0196 36.2265 41.6442 36.8698 40.4376L42.6958 46.2636C43.1885 46.7563 43.8341 47.0025 44.4796 47.0025C45.1253 47.0025 45.771 46.7561 46.2634 46.2636C47.2488 45.2786 47.2488 43.6811 46.2636 42.6959ZM17.7629 7.08346L26.2524 15.573L25.161 21.5933L15.832 12.2645L17.7629 7.08346ZM7.08339 17.763L12.2644 15.8322L21.5934 25.161L15.573 26.2526L7.08339 17.763ZM44.4796 80.9544C24.3677 80.9544 8.00523 64.592 8.00523 44.4798C8.00523 39.1855 9.16269 33.9602 11.3725 29.1876L12.9392 30.7543C13.4165 31.2317 14.06 31.4933 14.723 31.4933C14.8725 31.4933 15.023 31.48 15.173 31.4529L20.7325 30.4451C18.2914 34.5598 16.8874 39.3585 16.8874 44.4798C16.8874 59.6944 29.2653 72.0724 44.4798 72.0724C59.6944 72.0724 72.0724 59.6944 72.0724 44.4798C72.0724 29.2653 59.6944 16.8872 44.4798 16.8872C39.3585 16.8872 34.5598 18.2914 30.4451 20.7325L31.4529 15.1731C31.6004 14.3591 31.3393 13.5242 30.7544 12.9392L29.1877 11.3726C33.9602 9.16275 39.1854 8.00529 44.48 8.00529C64.5921 8.00529 80.9546 24.3677 80.9546 44.4797C80.9544 64.592 64.5918 80.9544 44.4796 80.9544Z" fill="url(#paint0_linear_1560_13534)"/>
<defs>
<linearGradient id="paint0_linear_1560_13534" x1="-1.9125e-06" y1="42" x2="72.4462" y2="10.6643" gradientUnits="userSpaceOnUse">
<stop offset="0.13" stop-color="#D62828"/>
<stop offset="0.54" stop-color="#F77F00"/>
<stop offset="0.55" stop-color="#F68000"/>
<stop offset="0.69" stop-color="#F59600"/>
<stop offset="0.84" stop-color="#F4A300"/>
<stop offset="0.97" stop-color="#F4A800"/>
</linearGradient>
</defs>
</svg>
