<svg width="41" height="36" viewBox="0 0 41 36" fill="none" xmlns="http://www.w3.org/2000/svg">
<path d="M0.742188 35.6L0.542188 28.4C6.54219 27.4 9.14219 21.9 9.04219 15.3H8.64219C8.44219 17.3 7.44219 19.6 4.44219 19.6H1.44219C1.24219 16.4 1.24219 13.2 1.24219 9.99999C1.24219 6.9 1.24219 3.7 1.44219 0.399999H15.5422C15.6422 3.8 15.7422 6.7 15.7422 9.8C15.7422 12.6 15.7422 16 15.5422 18.6C15.0422 26.5 12.1422 33.3 0.742188 35.6ZM25.7422 35.6L25.4422 28.4C31.5422 27.4 34.1422 21.9 34.0422 15.3H33.5422C33.4422 17.3 32.4422 19.6 29.4422 19.6H26.3422C26.1422 16.4 26.1422 13.2 26.1422 9.99999C26.1422 6.9 26.1422 3.7 26.3422 0.399999H40.5422C40.6422 3.8 40.7422 6.7 40.7422 9.8C40.7422 12.6 40.7422 16 40.5422 18.6C40.0422 26.5 37.1422 33.3 25.7422 35.6Z" fill="url(#paint0_linear_1529_13397)"/>
<defs>
<linearGradient id="paint0_linear_1529_13397" x1="-6" y1="32.6046" x2="46.0289" y2="22.4777" gradientUnits="userSpaceOnUse">
<stop offset="0.13" stop-color="#D62828"/>
<stop offset="0.54" stop-color="#F77F00"/>
<stop offset="0.55" stop-color="#F68000"/>
<stop offset="0.69" stop-color="#F59600"/>
<stop offset="0.84" stop-color="#F4A300"/>
<stop offset="0.97" stop-color="#F4A800"/>
</linearGradient>
</defs>
</svg>
