<svg width="91" height="91" viewBox="0 0 91 91" fill="none" xmlns="http://www.w3.org/2000/svg">
<g clip-path="url(#clip0_1340_710)">
<path d="M0.5 68.9486C0.959874 71.0091 1.63616 72.9324 2.88052 74.4435C4.63886 76.5727 6.72182 77.5 9.10234 77.5C19.0302 77.5 28.9581 77.5 38.8589 77.5C51.8165 77.5 64.8012 77.5 77.7588 77.5C81.3025 77.5 84.0077 75.5768 85.6308 71.4556C86.1988 70.0132 86.4423 68.4334 86.4423 66.8193C86.4423 63.9001 86.4423 60.9466 86.4423 58.0274C86.4423 57.2032 86.6046 56.7911 87.2809 56.5507C89.3368 55.9325 90.4729 54.0093 90.4729 51.2962C90.4729 47.9305 90.4729 44.5306 90.4729 41.1649C90.4729 38.4518 89.3368 36.5286 87.2809 35.9104C86.6046 35.7044 86.4152 35.2923 86.4423 34.4337C86.4693 31.5832 86.4423 28.6984 86.4423 25.8479C86.4423 19.5287 82.8445 14.9611 77.84 14.9268C54.9004 14.9268 31.9337 14.9268 8.99414 14.9268C4.93643 14.9268 1.93372 17.7772 0.68936 22.7227C0.635257 22.9631 0.554103 23.2035 0.5 23.4439C0.5 38.6235 0.5 53.8032 0.5 68.9486ZM43.4576 20.4217C54.8733 20.4217 66.289 20.4217 77.7047 20.4217C80.518 20.4217 82.1411 22.4479 82.1411 25.9853C82.1411 39.4821 82.1411 52.979 82.1411 66.4415C82.1411 69.9788 80.518 72.0051 77.7047 72.0051C54.8733 72.0051 32.0419 72.0051 9.21055 72.0051C6.31605 72.0051 4.74707 70.0475 4.74707 66.3728C4.74707 52.9103 4.74707 39.4478 4.74707 26.0196C4.74707 22.3449 6.31605 20.3873 9.21055 20.3873C20.6262 20.3873 32.0419 20.3873 43.4576 20.3873V20.4217Z" fill="#F77F00"/>
<path d="M21.5997 68.7083H9.64301C8.71672 68.7083 7.96582 67.7549 7.96582 66.579V25.8136C7.96582 24.6377 8.71672 23.6844 9.64301 23.6844H21.5997C22.526 23.6844 23.2769 24.6377 23.2769 25.8136V66.579C23.2769 67.7549 22.526 68.7083 21.5997 68.7083Z" fill="#F77F00"/>
<path d="M39.9142 68.7083H27.9575C27.0312 68.7083 26.2803 67.7549 26.2803 66.579V25.8136C26.2803 24.6377 27.0312 23.6844 27.9575 23.6844H39.9142C40.8405 23.6844 41.5914 24.6377 41.5914 25.8136V66.579C41.5914 67.7549 40.8405 68.7083 39.9142 68.7083Z" fill="#F77F00"/>
<path d="M58.2277 68.7083H46.2709C45.3447 68.7083 44.5938 67.7549 44.5938 66.579V25.8136C44.5938 24.6377 45.3447 23.6844 46.2709 23.6844H58.2277C59.1539 23.6844 59.9048 24.6377 59.9048 25.8136V66.579C59.9048 67.7549 59.1539 68.7083 58.2277 68.7083Z" fill="#F77F00"/>
<path d="M76.5148 68.7083H64.558C63.6318 68.7083 62.8809 67.7549 62.8809 66.579V25.8136C62.8809 24.6377 63.6318 23.6844 64.558 23.6844H76.5148C77.4411 23.6844 78.1919 24.6377 78.1919 25.8136V66.579C78.1919 67.7549 77.4411 68.7083 76.5148 68.7083Z" fill="#F77F00"/>
</g>
<defs>
<clipPath id="clip0_1340_710">
<rect width="90" height="62.5732" fill="white" transform="matrix(1 0 0 -1 0.5 77.5)"/>
</clipPath>
</defs>
</svg>
