<svg width="31" height="22" viewBox="0 0 31 22" fill="none" xmlns="http://www.w3.org/2000/svg">
<path d="M29.2999 3.42233H26.7815V0.855722C26.7815 0.38327 26.3984 0.000244141 25.926 0.000244141H1.81056C1.3381 0.000244141 0.955078 0.38327 0.955078 0.855722V14.6903C0.955078 15.1628 1.3381 15.5458 1.81056 15.5458H5.81961L4.82566 17.3951C4.39404 18.198 4.41566 19.1446 4.88338 19.9271C5.35115 20.7095 6.17469 21.1767 7.08629 21.1767H20.6502C21.5618 21.1767 22.3852 20.7097 22.853 19.9274C23.3208 19.1451 23.3425 18.1986 22.9112 17.3956L21.9175 15.5458H25.926C26.3984 15.5458 26.7815 15.1628 26.7815 14.6903V12.1237H29.2999C29.7724 12.1237 30.1554 11.7407 30.1554 11.2683V4.27781C30.1554 3.80535 29.7724 3.42233 29.2999 3.42233ZM21.3845 19.0492C21.3096 19.1744 21.0882 19.4657 20.6502 19.4657H7.08629C6.64823 19.4657 6.42683 19.1744 6.35195 19.0491C6.27707 18.9239 6.1253 18.5909 6.33273 18.2051L8.00137 15.1006C8.00239 15.0988 8.00336 15.0969 8.00439 15.095L13.1166 5.58378C13.3352 5.1772 13.7164 5.13329 13.8702 5.13329H13.8702C14.024 5.13329 14.4054 5.17726 14.6239 5.58395L19.7331 15.095C19.7341 15.0968 19.7351 15.0986 19.7361 15.1005L21.4039 18.2052C21.6112 18.5911 21.4594 18.924 21.3845 19.0492ZM25.0705 13.8349H20.9984L16.1311 4.77427C15.6832 3.94046 14.817 3.42239 13.8705 3.42233C13.8703 3.42233 13.8703 3.42233 13.8702 3.42233C12.9238 3.42233 12.0576 3.94018 11.6095 4.77376L6.73925 13.8349H2.66603V1.7112H25.0705V4.27781V11.2683V13.8349ZM28.4444 10.4128H26.7815V5.13329H28.4444V10.4128Z" fill="#535353"/>
<path d="M5.23145 3.4563C4.759 3.4563 4.37598 3.83932 4.37598 4.31178V11.2684C4.37598 11.7409 4.759 12.1239 5.23145 12.1239C5.70391 12.1239 6.08693 11.7409 6.08693 11.2684V4.31178C6.08693 3.83932 5.70391 3.4563 5.23145 3.4563Z" fill="#535353"/>
<path d="M13.8711 8.60034C13.3987 8.60034 13.0156 8.98337 13.0156 9.45582V13.477C13.0156 13.9494 13.3987 14.3324 13.8711 14.3324C14.3436 14.3324 14.7266 13.9494 14.7266 13.477V9.45582C14.7266 8.98337 14.3436 8.60034 13.8711 8.60034Z" fill="#535353"/>
<path d="M13.8711 16.0439C13.6458 16.0439 13.4257 16.1352 13.266 16.2943C13.1069 16.4534 13.0156 16.6741 13.0156 16.8994C13.0156 17.1241 13.1069 17.3448 13.266 17.504C13.4257 17.6631 13.6458 17.7543 13.8711 17.7543C14.0964 17.7543 14.3165 17.6631 14.4762 17.504C14.6353 17.3449 14.7266 17.1241 14.7266 16.8994C14.7266 16.6741 14.6353 16.4534 14.4762 16.2943C14.3171 16.1352 14.0964 16.0439 13.8711 16.0439Z" fill="#535353"/>
</svg>
