<svg width="36" height="29" viewBox="0 0 36 29" fill="none" xmlns="http://www.w3.org/2000/svg">
<path d="M21.3412 9.84783C20.8105 9.31712 19.95 9.31694 19.4195 9.84765C18.8888 10.3784 18.8888 11.2388 19.4195 11.7694C20.8654 13.2155 20.8654 15.5686 19.4195 17.0147C18.8888 17.5454 18.8888 18.4059 19.4195 18.9364C19.6848 19.2017 20.0327 19.3343 20.3804 19.3343C20.7281 19.3343 21.076 19.2017 21.3412 18.9362C23.8469 16.4307 23.8469 12.3535 21.3412 9.84783Z" fill="#535353"/>
<path d="M25.3237 5.86445C24.7929 5.33392 23.9325 5.33392 23.4019 5.86445C22.8712 6.39534 22.8712 7.25564 23.4019 7.78635C27.0443 11.4287 27.0443 17.3553 23.4019 20.9974C22.8712 21.5283 22.8712 22.3886 23.4019 22.9193C23.6672 23.1845 24.0151 23.3172 24.3628 23.3172C24.7105 23.3172 25.0584 23.1845 25.3237 22.9193C30.0256 18.2174 30.0256 10.5666 25.3237 5.86445Z" fill="#535353"/>
<path d="M29.769 1.41938C29.2384 0.889033 28.378 0.888671 27.8473 1.41938C27.3165 1.95027 27.3165 2.81057 27.8473 3.34128C30.799 6.29307 32.4247 10.2177 32.4247 14.392C32.4247 18.5664 30.799 22.491 27.8473 25.4427C27.3165 25.9736 27.3165 26.8338 27.8473 27.3646C28.1125 27.6298 28.4604 27.7625 28.8081 27.7625C29.1558 27.7625 29.5037 27.6298 29.769 27.3646C33.2341 23.8995 35.1424 19.2923 35.1424 14.3918C35.1426 9.49164 33.2341 4.88467 29.769 1.41938Z" fill="#535353"/>
<path d="M15.8358 0.594932C15.3531 0.372972 14.7856 0.452878 14.383 0.799135L5.74796 8.21965H1.80034C1.04985 8.21965 0.441406 8.82791 0.441406 9.57859V19.206C0.441406 19.9567 1.04985 20.565 1.80034 20.565H5.74796L14.383 27.9855C14.6345 28.2015 14.95 28.3138 15.269 28.3138C15.4611 28.3138 15.6544 28.273 15.8358 28.1897C16.3185 27.9681 16.6278 27.4857 16.6278 26.9549V1.82975C16.6278 1.29886 16.3183 0.816348 15.8358 0.594932ZM3.15928 10.9375H4.89274V17.8471H3.15928V10.9375ZM13.9099 23.9951L7.61061 18.5818V10.2026L13.9099 4.78933V23.9951Z" fill="#535353"/>
</svg>
