<svg width="36" height="37" viewBox="0 0 36 37" fill="none" xmlns="http://www.w3.org/2000/svg">
<path d="M12.8523 16.6059C12.1209 17.3373 12.1209 18.5274 12.8523 19.2588L15.9913 22.3978C16.7245 23.1309 17.911 23.131 18.6443 22.3978L23.2887 17.7534C24.0201 17.022 24.0201 15.8319 23.2887 15.1004C22.5557 14.3673 21.3688 14.3672 20.6357 15.1004L17.3178 18.4183L15.5053 16.6059C14.7722 15.8728 13.5855 15.8726 12.8523 16.6059ZM17.6834 19.5151L21.367 15.8316C21.6959 15.5026 22.2285 15.5025 22.5575 15.8316C22.8858 16.1599 22.8858 16.694 22.5575 17.0223L17.9131 21.6667C17.5848 21.995 17.0507 21.995 16.7225 21.6667L13.5835 18.5277C13.2552 18.1994 13.2552 17.6653 13.5834 17.337C13.9125 17.008 14.445 17.0079 14.7741 17.337L16.9522 19.5151C17.1541 19.717 17.4814 19.717 17.6834 19.5151Z" fill="#535353"/>
<path d="M34.2287 15.1575H31.9636C31.7514 15.1575 31.5637 15.0106 31.5071 14.8002C31.1955 13.64 30.7321 12.5226 30.1298 11.479C30.0212 11.2907 30.0508 11.0537 30.2019 10.9025L31.8031 9.30142C32.0879 9.01665 32.2447 8.638 32.2447 8.23522C32.2447 7.83251 32.0879 7.45385 31.8031 7.16909L29.3325 4.69857C28.7447 4.11077 27.7882 4.11077 27.2001 4.69857L25.5991 6.29976C25.4479 6.45101 25.2109 6.48058 25.0227 6.37194C23.9792 5.76966 22.8618 5.30629 21.7014 4.99457C21.491 4.93805 21.3441 4.75041 21.3441 4.53809V2.27293C21.3442 1.44152 20.6677 0.765137 19.8364 0.765137H16.3425C15.5111 0.765137 14.8347 1.44152 14.8347 2.27293V4.53802C14.8347 4.75027 14.6878 4.93798 14.4774 4.9945C13.3169 5.30622 12.1995 5.76966 11.1562 6.37187C10.9677 6.48065 10.7308 6.45087 10.5798 6.29976L8.9786 4.69864C8.69383 4.41387 8.31518 4.25705 7.9124 4.25705C7.50969 4.25705 7.13103 4.41387 6.8462 4.69864L4.37582 7.16909C3.78802 7.75696 3.78809 8.71348 4.37582 9.30135L5.97701 10.9025C6.12811 11.0536 6.15782 11.2907 6.04918 11.479C5.44691 12.5226 4.98347 13.64 4.67182 14.8003C4.61536 15.0107 4.42765 15.1576 4.21541 15.1576H1.95017C1.11876 15.1575 0.442383 15.8339 0.442383 16.6653V20.1591C0.442383 20.9905 1.11876 21.6669 1.95017 21.6669H4.21527C4.42752 21.6669 4.61522 21.8138 4.67168 22.0242C4.98333 23.1843 5.4467 24.3018 6.04905 25.3454C6.15769 25.5337 6.12804 25.7707 5.97687 25.9218L4.37568 27.523C3.78788 28.1108 3.78788 29.0674 4.37568 29.6554L6.84627 32.1259C7.13103 32.4107 7.50969 32.5675 7.9124 32.5675C8.31518 32.5675 8.69383 32.4107 8.9786 32.1259L10.5798 30.5248C10.7309 30.3737 10.9679 30.344 11.1561 30.4526C12.1995 31.0548 13.3169 31.5182 14.4774 31.83C14.6878 31.8865 14.8347 32.0741 14.8347 32.2864V34.5515C14.8347 35.3829 15.5111 36.0593 16.3425 36.0593H19.8364C20.6678 36.0593 21.3442 35.3829 21.3442 34.5515V32.2864C21.3442 32.0742 21.491 31.8865 21.7015 31.83C22.8619 31.5182 23.9793 31.0548 25.0227 30.4526C25.2109 30.344 25.4481 30.3737 25.5991 30.5247L27.2003 32.1259C27.7882 32.7138 28.7447 32.7137 29.3327 32.1259L31.8031 29.6554C32.0879 29.3707 32.2447 28.992 32.2447 28.5892C32.2447 28.1865 32.0879 27.8079 31.8031 27.5231L30.2019 25.922C30.0508 25.7708 30.0212 25.5338 30.1298 25.3455C30.7321 24.3018 31.1956 23.1843 31.5071 22.0243C31.5637 21.8139 31.7514 21.667 31.9636 21.667H34.2287C35.0601 21.667 35.7365 20.9906 35.7365 20.1592V19.6185C35.7365 19.333 35.5051 19.1015 35.2195 19.1015C34.9339 19.1015 34.7025 19.333 34.7025 19.6185V20.1591C34.7025 20.4204 34.49 20.6329 34.2287 20.6329H31.9636C31.2845 20.6329 30.6862 21.0947 30.5086 21.756C30.2203 22.8291 29.7916 23.8629 29.2342 24.8286C28.8921 25.4214 28.9894 26.1716 29.4708 26.653L31.072 28.2542C31.1615 28.3437 31.2108 28.4626 31.2108 28.5892C31.2108 28.7157 31.1615 28.8347 31.072 28.9242L28.6016 31.3946C28.4168 31.5794 28.1163 31.5795 27.9315 31.3946L26.3303 29.7934C25.8489 29.3121 25.0986 29.2148 24.5059 29.5569C23.5404 30.1141 22.5067 30.5429 21.4333 30.8312C20.772 31.0089 20.3102 31.6072 20.3102 32.2863V34.5514C20.3102 34.8127 20.0977 35.0252 19.8364 35.0252H16.3426C16.0813 35.0252 15.8688 34.8127 15.8688 34.5514V32.2863C15.8688 31.6072 15.407 31.0089 14.7458 30.8312C13.6723 30.5428 12.6385 30.1141 11.6731 29.5569C11.0804 29.2147 10.3301 29.3121 9.84868 29.7934L8.24748 31.3946C8.15801 31.484 8.0391 31.5333 7.91253 31.5333C7.78597 31.5333 7.66699 31.484 7.57759 31.3946L5.10707 28.9241C4.92232 28.7394 4.92232 28.4388 5.10707 28.2541L6.70826 26.6529C7.18956 26.1715 7.28689 25.4213 6.94484 24.8285C6.38751 23.8629 5.95867 22.8291 5.67046 21.7559C5.49289 21.0947 4.89454 20.6328 4.21548 20.6328H1.95017C1.68891 20.6328 1.47639 20.4203 1.47639 20.159V16.6652C1.47639 16.4039 1.68891 16.1914 1.95017 16.1914H4.21527C4.8944 16.1914 5.49268 15.7296 5.67025 15.0684C5.9586 13.9951 6.3873 12.9613 6.94463 11.9956C7.28668 11.4028 7.18942 10.6527 6.70805 10.1713L5.10686 8.5701C4.92212 8.38536 4.92212 8.08481 5.10686 7.90006L7.57731 5.42961C7.66685 5.34014 7.78576 5.29085 7.91233 5.29085C8.03889 5.29085 8.15787 5.34014 8.24735 5.42961L9.84847 7.03074C10.3298 7.51197 11.08 7.60937 11.6729 7.26732C12.6383 6.71013 13.6721 6.28136 14.7455 5.99301C15.4068 5.81537 15.8686 5.21709 15.8686 4.53795V2.27293C15.8686 2.01167 16.0811 1.79914 16.3424 1.79914H19.8362C20.0975 1.79914 20.31 2.01167 20.31 2.27293V4.53802C20.31 5.21716 20.7718 5.81543 21.433 5.99308C22.5064 6.28143 23.5402 6.7102 24.5057 7.26739C25.0987 7.60958 25.8486 7.51224 26.3301 7.03088L27.9312 5.42975C28.116 5.24501 28.4165 5.24501 28.6013 5.42975L31.0717 7.9002C31.1613 7.98968 31.2106 8.10866 31.2106 8.23522C31.2106 8.36178 31.1613 8.48076 31.0717 8.57024L29.4706 10.1714C28.9893 10.6529 28.8919 11.4031 29.234 11.9958C29.7914 12.9615 30.2201 13.9953 30.5084 15.0685C30.686 15.7297 31.2844 16.1915 31.9634 16.1915H34.2285C34.4898 16.1915 34.7023 16.404 34.7023 16.6653V17.2059C34.7023 17.4914 34.9337 17.7229 35.2193 17.7229C35.5049 17.7229 35.7363 17.4914 35.7363 17.2059V16.6653C35.7365 15.8339 35.0601 15.1575 34.2287 15.1575Z" fill="#535353"/>
<path d="M16.8152 8.78782C12.0068 9.41829 8.38086 13.5559 8.38086 18.4124C8.38086 23.7652 12.7358 28.1202 18.0887 28.1202C23.4415 28.1202 27.7964 23.7653 27.7964 18.4124C27.7964 13.5559 24.1705 9.41829 19.3622 8.78782C19.0798 8.75108 18.8194 8.95009 18.7824 9.2332C18.7453 9.51631 18.9446 9.77592 19.2278 9.81307C23.5232 10.3763 26.7624 14.0732 26.7624 18.4124C26.7624 23.1951 22.8714 27.0862 18.0887 27.0862C13.3059 27.0862 9.41487 23.1951 9.41487 18.4124C9.41487 14.0732 12.6541 10.3763 16.9495 9.81307C17.2327 9.77592 17.4321 9.51631 17.395 9.2332C17.3578 8.95002 17.0971 8.75108 16.8152 8.78782Z" fill="#535353"/>
</svg>
