<svg width="42" height="41" viewBox="0 0 42 41" fill="none" xmlns="http://www.w3.org/2000/svg">
<path d="M24.329 7.05926C31.6689 8.01144 37.204 14.32 37.204 21.7336C37.204 25.2521 35.9479 28.6618 33.6672 31.3343C33.4572 31.5804 33.4864 31.9503 33.7326 32.1603C33.8429 32.2545 33.9781 32.3006 34.1126 32.3006C34.2782 32.3006 34.4428 32.2308 34.5586 32.095C37.0201 29.2107 38.3758 25.5308 38.3758 21.7336C38.3758 17.8303 36.9525 14.0726 34.3679 11.1528C31.8059 8.25855 28.2942 6.39207 24.4797 5.8973C24.1598 5.85551 23.8649 6.08199 23.8233 6.40301C23.7816 6.72394 24.0081 7.01785 24.329 7.05926Z" fill="#535353" stroke="#535353" stroke-width="0.5"/>
<path d="M35.1266 21.7339C35.1266 21.4103 34.8644 21.1479 34.5407 21.1479H32.2656C31.942 21.1479 31.6797 21.4103 31.6797 21.7339C31.6797 22.0575 31.942 22.3198 32.2656 22.3198H34.5407C34.8643 22.3198 35.1266 22.0575 35.1266 21.7339Z" fill="#535353" stroke="#535353" stroke-width="0.5"/>
<path d="M28.9636 29.1191L30.5724 30.7279C30.6868 30.8423 30.8368 30.8995 30.9867 30.8995C31.1367 30.8995 31.2867 30.8422 31.4011 30.7279C31.6299 30.4991 31.6299 30.1281 31.4011 29.8993L29.7923 28.2905C29.5635 28.0617 29.1925 28.0617 28.9636 28.2905C28.7348 28.5193 28.7348 28.8903 28.9636 29.1191Z" fill="#535353" stroke="#535353" stroke-width="0.5"/>
<path d="M29.378 15.3487C29.5279 15.3487 29.6779 15.2915 29.7924 15.1771L31.4011 13.5683C31.6299 13.3396 31.6299 12.9686 31.401 12.7397C31.1722 12.5109 30.8013 12.5109 30.5724 12.7397L28.9636 14.3485C28.7348 14.5772 28.7348 14.9483 28.9636 15.1771C29.0781 15.2915 29.2281 15.3487 29.378 15.3487Z" fill="#535353" stroke="#535353" stroke-width="0.5"/>
<path d="M10.2734 21.1479C9.94984 21.1479 9.6875 21.4103 9.6875 21.7339C9.6875 22.0575 9.94984 22.3198 10.2734 22.3198H12.5485C12.8721 22.3198 13.1345 22.0575 13.1345 21.7339C13.1345 21.4103 12.8721 21.1479 12.5485 21.1479H10.2734Z" fill="#535353" stroke="#535353" stroke-width="0.5"/>
<path d="M15.0215 28.2905L13.4128 29.8993C13.184 30.128 13.184 30.499 13.4128 30.7279C13.5272 30.8423 13.6772 30.8995 13.8271 30.8995C13.9771 30.8995 14.127 30.8422 14.2414 30.7279L15.8501 29.1191C16.0789 28.8904 16.0789 28.5193 15.8501 28.2905C15.6213 28.0617 15.2503 28.0617 15.0215 28.2905Z" fill="#535353" stroke="#535353" stroke-width="0.5"/>
<path d="M36.2946 9.24328C33.2288 5.83672 29.0435 3.6807 24.5094 3.17266C24.188 3.13633 23.898 3.36812 23.8619 3.68969C23.8258 4.01133 24.0574 4.30125 24.3789 4.33727C33.2349 5.32977 39.9131 12.8087 39.9131 21.7339C39.9131 31.3869 32.0599 39.2402 22.4067 39.2402C12.7537 39.2402 4.90033 31.3869 4.90033 21.7338C4.90033 19.5959 5.28041 17.5155 6.02861 15.5402C6.44361 15.8765 6.87213 16.1977 7.31377 16.5037C6.73213 18.182 6.43689 19.9398 6.43689 21.7338C6.43689 30.5396 13.601 37.7037 22.4067 37.7037C26.3048 37.7037 30.0585 36.2837 32.9767 33.7053C33.2192 33.4911 33.2421 33.1208 33.0278 32.8783C32.8134 32.6358 32.4431 32.6128 32.2007 32.8272C29.497 35.2162 26.0187 36.5318 22.4067 36.5318C14.2471 36.5318 7.60877 29.8934 7.60877 21.7338C7.60877 20.1714 7.85049 18.6391 8.32643 17.1701L9.2926 17.7862C9.51752 17.9296 9.77525 18.0013 10.033 18.0013C10.2906 18.0013 10.5485 17.9296 10.7733 17.7863L12.0657 16.962C14.4559 15.4377 16.4882 13.4846 18.1062 11.1569C18.1084 11.1538 18.1105 11.1506 18.1126 11.1474C18.8753 10.0034 19.1254 8.63992 18.8933 7.35656C19.8495 7.12383 20.8303 6.98711 21.8208 6.94844V19.2446C21.5485 19.3088 21.2927 19.4162 21.0614 19.5598L18.2019 16.7003L18.9932 16.7723C19.316 16.8015 19.6005 16.5641 19.6298 16.2418C19.6591 15.9195 19.4216 15.6345 19.0993 15.6052L16.6963 15.3868C16.6924 15.3864 16.6885 15.3866 16.6846 15.3864C16.6687 15.3853 16.6528 15.3845 16.6369 15.3848C16.6296 15.3848 16.6224 15.3855 16.615 15.3858C16.602 15.3864 16.5889 15.3872 16.576 15.3887C16.5684 15.3895 16.5609 15.3908 16.5533 15.392C16.5406 15.3939 16.5278 15.3962 16.5153 15.3991C16.5081 15.4007 16.501 15.4024 16.4939 15.4043C16.4809 15.4077 16.4681 15.4116 16.4553 15.4159C16.4488 15.4181 16.4425 15.4202 16.4362 15.4226C16.4229 15.4276 16.4098 15.4333 16.3968 15.4393C16.3913 15.4419 16.3856 15.4443 16.3802 15.447C16.3668 15.4538 16.3538 15.4613 16.3409 15.4691C16.3361 15.472 16.3312 15.4745 16.3264 15.4776C16.3132 15.4861 16.3004 15.4955 16.2878 15.5052C16.2838 15.5082 16.2796 15.5109 16.2756 15.5141C16.2595 15.5271 16.2438 15.541 16.2288 15.556C16.2138 15.571 16.1999 15.5867 16.1868 15.6029C16.1837 15.6067 16.1811 15.6109 16.1781 15.6148C16.1683 15.6275 16.1588 15.6404 16.1503 15.6537C16.1474 15.6584 16.1447 15.6632 16.1419 15.668C16.1341 15.6809 16.1265 15.694 16.1198 15.7074C16.1171 15.7129 16.1147 15.7184 16.1121 15.7239C16.1061 15.737 16.1004 15.75 16.0954 15.7633C16.093 15.7696 16.0909 15.776 16.0887 15.7824C16.0844 15.7952 16.0805 15.808 16.0771 15.8209C16.0752 15.828 16.0735 15.8352 16.0718 15.8424C16.069 15.855 16.0667 15.8676 16.0648 15.8803C16.0636 15.8879 16.0624 15.8955 16.0615 15.903C16.06 15.9161 16.0592 15.9291 16.0586 15.9422C16.0583 15.9495 16.0577 15.9566 16.0576 15.9638C16.0574 15.9804 16.0581 15.997 16.0594 16.0135C16.0596 16.0168 16.0595 16.02 16.0597 16.0233L16.0599 16.026C16.0599 16.0262 16.0599 16.0264 16.06 16.0266L16.2781 18.4263C16.3058 18.7305 16.5613 18.9592 16.861 18.9592C16.8788 18.9592 16.8967 18.9584 16.9147 18.9568C17.237 18.9275 17.4745 18.6425 17.4452 18.3202L17.3732 17.5289L20.2328 20.3884C19.9898 20.7796 19.849 21.2405 19.849 21.7338C19.849 22.9425 20.6921 23.9573 21.8207 24.223V26.5873C21.8207 26.9109 22.083 27.1733 22.4067 27.1733C22.7303 27.1733 22.9926 26.9109 22.9926 26.5873V24.223C23.265 24.1588 23.5207 24.0514 23.752 23.9078L25.3291 25.4849C25.4435 25.5993 25.5935 25.6566 25.7435 25.6566C25.8934 25.6566 26.0434 25.5994 26.1578 25.4849C26.3867 25.2561 26.3867 24.8851 26.1578 24.6563L24.5806 23.0791C24.8235 22.688 24.9643 22.2271 24.9643 21.7338C24.9643 20.5252 24.1213 19.5104 22.9926 19.2447V0.998047C22.9926 0.674453 22.7303 0.412109 22.4067 0.412109C22.083 0.412109 21.8207 0.674453 21.8207 0.998047V3.06531C20.1209 3.11781 18.4457 3.39789 16.8332 3.90141C16.7746 3.91969 16.721 3.94648 16.6731 3.97977C14.7443 2.71695 12.1245 2.93187 10.4313 4.625L10.1779 4.87844C10.098 4.95836 9.96791 4.95828 9.88807 4.87852L9.63455 4.625C7.69486 2.68539 4.53877 2.68539 2.59908 4.625C0.862752 6.36133 0.59119 9.10445 1.95322 11.1475C1.95533 11.1507 1.95744 11.1538 1.95963 11.157C2.8733 12.4713 3.91916 13.6662 5.08682 14.7319C4.18619 16.9566 3.72838 19.3109 3.72838 21.7338C3.72838 26.723 5.67127 31.4135 9.19916 34.9414C12.7271 38.4692 17.4176 40.4121 22.4067 40.4121C27.3959 40.4121 32.0864 38.4692 35.6143 34.9414C39.1422 31.4136 41.085 26.723 41.085 21.7338C41.085 17.1118 39.3838 12.6759 36.2946 9.24328ZM22.4067 20.348C23.1709 20.348 23.7925 20.9697 23.7925 21.7338C23.7925 22.498 23.1709 23.1196 22.4067 23.1196C21.6426 23.1196 21.021 22.4979 21.021 21.7338C21.021 20.9698 21.6426 20.348 22.4067 20.348ZM21.8208 4.23758V5.77531C20.7156 5.81531 19.6213 5.96961 18.5552 6.23359C18.3453 5.7443 18.0575 5.28328 17.6943 4.86961C19.0353 4.49578 20.4187 4.28375 21.8208 4.23758ZM2.92517 10.4927C1.87541 8.91336 2.08642 6.795 3.42783 5.45367C4.91064 3.97094 7.3233 3.97102 8.80596 5.45367L9.05947 5.70727C9.59635 6.24398 10.4698 6.24398 11.0067 5.70719L11.2601 5.45375C12.7428 3.97102 15.1555 3.97102 16.6382 5.45375C17.9796 6.79516 18.1906 8.91359 17.1408 10.493C15.6123 12.6905 13.6928 14.5347 11.4357 15.9741L10.1432 16.7984C10.0763 16.8412 9.98986 16.841 9.92283 16.7984L8.63041 15.9741C6.37322 14.5346 4.45369 12.6903 2.92517 10.4927Z" fill="#535353" stroke="#535353" stroke-width="0.5"/>
<path d="M22.4062 31.0066C22.0826 31.0066 21.8203 31.2689 21.8203 31.5925V33.8676C21.8203 34.1912 22.0826 34.4535 22.4062 34.4535C22.7299 34.4535 22.9922 34.1912 22.9922 33.8676V31.5925C22.9922 31.2689 22.7299 31.0066 22.4062 31.0066Z" fill="#535353" stroke="#535353" stroke-width="0.5"/>
</svg>
