<svg width="91" height="91" viewBox="0 0 91 91" fill="none" xmlns="http://www.w3.org/2000/svg">
<path fill-rule="evenodd" clip-rule="evenodd" d="M51.1854 2.44499L56.9015 6.77593C58.4649 7.96039 60.1104 8.56657 62.0602 8.67645L69.1892 9.07785C73.458 9.31812 76.9251 12.2627 77.9001 16.4763L79.5287 23.5131C79.974 25.4375 80.8497 26.9725 82.2735 28.3251L87.4799 33.2712C90.5972 36.2326 91.3831 40.744 89.4544 44.6062L86.2333 51.0561C85.3525 52.8202 85.0483 54.5656 85.2801 56.5282L86.1276 63.7045C86.635 68.0014 84.372 71.9685 80.442 73.6723L73.8784 76.5176C72.0833 77.2957 70.7419 78.435 69.6731 80.0892L65.765 86.1377C63.425 89.7594 59.1722 91.3261 55.0798 90.0742L48.245 87.9835C46.3758 87.4117 44.6247 87.4117 42.7554 87.9835L35.9206 90.0742C31.8282 91.3261 27.5753 89.7594 25.2353 86.1377L21.3272 80.0892C20.2583 78.435 18.9169 77.2957 17.122 76.5176L10.558 73.6719C6.62796 71.9682 4.36502 68.0011 4.87239 63.7041L5.7199 56.5279C5.95165 54.5653 5.64752 52.8198 4.76664 51.0557L1.54557 44.6058C-0.383057 40.7438 0.402758 36.2324 3.52014 33.2708L8.72647 28.3247C10.1503 26.9721 11.0258 25.4371 11.4711 23.5127L13.0997 16.4759C14.0747 12.2625 17.5418 9.31793 21.8106 9.07747L28.9396 8.67608C30.8894 8.56638 32.5349 7.96001 34.0983 6.77555L39.8144 2.44461C43.2369 -0.148265 47.7628 -0.148265 51.1854 2.44499ZM41.8535 47.9785L35.6502 41.6996C34.0424 40.0722 31.4345 40.0722 29.8268 41.6996C28.219 43.327 28.219 45.9666 29.8268 47.594L38.9508 56.829C40.5586 58.4563 43.1666 58.4565 44.7742 56.829C50.2736 51.2624 55.7107 45.6333 61.1848 40.0412C62.781 38.4106 62.7759 35.7794 61.167 34.1599C59.5578 32.5401 56.9508 32.5447 55.353 34.1781L41.8535 47.9785ZM45.4998 14.461C37.0321 14.461 29.3658 17.9352 23.8165 23.5522C18.2672 29.1693 14.8349 36.9289 14.8349 45.4999C14.8349 54.0709 18.2672 61.8307 23.8165 67.4476C29.3658 73.0646 37.0321 76.5388 45.4998 76.5388C53.9675 76.5388 61.6339 73.0646 67.1831 67.4476C72.7324 61.8307 76.1648 54.0709 76.1648 45.4999C76.1648 36.9289 72.7324 29.1691 67.1831 23.5522C61.6339 17.9352 53.9675 14.461 45.4998 14.461ZM65.0619 25.6992C60.0557 20.6319 53.1393 17.4976 45.4998 17.4976C37.8603 17.4976 30.944 20.6319 25.9377 25.6992C20.9314 30.7665 17.8349 37.7672 17.8349 45.4999C17.8349 53.2326 20.9314 60.2333 25.9377 65.3006C30.944 70.3679 37.8603 73.5022 45.4998 73.5022C53.1393 73.5022 60.0557 70.3679 65.0619 65.3008C70.0682 60.2334 73.1646 53.2328 73.1646 45.5001C73.1648 37.7672 70.0682 30.7665 65.0619 25.6992Z" fill="#F77F00"/>
</svg>
