<svg width="41" height="36" viewBox="0 0 41 36" fill="none" xmlns="http://www.w3.org/2000/svg">
<path d="M0.242188 35.6L0.0421876 28.4C6.04219 27.4 8.64219 21.9 8.54219 15.3H8.14219C7.94219 17.3 6.94219 19.6 3.94219 19.6H0.942188C0.742188 16.4 0.742188 13.2 0.742188 9.99999C0.742188 6.9 0.742188 3.7 0.942188 0.399999H15.0422C15.1422 3.8 15.2422 6.7 15.2422 9.8C15.2422 12.6 15.2422 16 15.0422 18.6C14.5422 26.5 11.6422 33.3 0.242188 35.6ZM25.2422 35.6L24.9422 28.4C31.0422 27.4 33.6422 21.9 33.5422 15.3H33.0422C32.9422 17.3 31.9422 19.6 28.9422 19.6H25.8422C25.6422 16.4 25.6422 13.2 25.6422 9.99999C25.6422 6.9 25.6422 3.7 25.8422 0.399999H40.0422C40.1422 3.8 40.2422 6.7 40.2422 9.8C40.2422 12.6 40.2422 16 40.0422 18.6C39.5422 26.5 36.6422 33.3 25.2422 35.6Z" fill="white"/>
</svg>
