<svg width="34" height="33" viewBox="0 0 34 33" fill="none" xmlns="http://www.w3.org/2000/svg">
<path d="M16.75 33C25.8627 33 33.25 25.6127 33.25 16.5C33.25 7.3873 25.8627 0 16.75 0C7.6373 0 0.25 7.3873 0.25 16.5C0.25 25.6127 7.6373 33 16.75 33Z" fill="black"/>
<path d="M16.75 7.98347C19.5245 7.98347 19.852 7.99325 20.9472 8.04458C21.9592 8.09102 22.5092 8.25969 22.8758 8.40147C23.3598 8.58969 23.7069 8.81458 24.0712 9.1788C24.4354 9.54302 24.6603 9.88769 24.8485 10.3741C24.9903 10.7408 25.1589 11.2908 25.2054 12.3028C25.2543 13.3979 25.2665 13.7279 25.2665 16.4999C25.2665 19.2719 25.2567 19.6019 25.2054 20.697C25.1589 21.709 24.9903 22.259 24.8485 22.6257C24.6603 23.1097 24.4354 23.4568 24.0712 23.821C23.7069 24.1852 23.3623 24.4101 22.8758 24.5984C22.5092 24.7401 21.9592 24.9088 20.9472 24.9552C19.852 25.0041 19.5245 25.0164 16.75 25.0164C13.9756 25.0164 13.648 25.0066 12.5529 24.9552C11.5409 24.9088 10.9909 24.7401 10.6243 24.5984C10.1403 24.4101 9.79315 24.1852 9.42893 23.821C9.0647 23.4568 8.83981 23.1121 8.65159 22.6257C8.50981 22.259 8.34115 21.709 8.2947 20.697C8.24582 19.6019 8.23359 19.2719 8.23359 16.4999C8.23359 13.7279 8.24337 13.3979 8.2947 12.3028C8.34115 11.2908 8.50981 10.7408 8.65159 10.3741C8.83981 9.89013 9.0647 9.54302 9.42893 9.1788C9.79315 8.81458 10.1378 8.58969 10.6243 8.40147C10.9909 8.25969 11.5409 8.09102 12.5529 8.04458C13.648 7.99569 13.978 7.98347 16.75 7.98347ZM16.75 6.11102C13.9292 6.11102 13.5747 6.12325 12.4674 6.17458C11.3625 6.22591 10.6071 6.39947 9.9447 6.65858C9.2627 6.92502 8.68337 7.27947 8.10404 7.85636C7.52715 8.43325 7.17026 9.01258 6.90626 9.69702C6.64959 10.357 6.47359 11.1124 6.42226 12.2197C6.37093 13.327 6.3587 13.6815 6.3587 16.5024C6.3587 19.3232 6.37093 19.6777 6.42226 20.785C6.47359 21.8899 6.64715 22.6452 6.90626 23.3077C7.1727 23.9897 7.52715 24.569 8.10404 25.1484C8.68093 25.7252 9.26026 26.0821 9.9447 26.3461C10.6047 26.6028 11.36 26.7788 12.4674 26.8301C13.5747 26.8815 13.9292 26.8937 16.75 26.8937C19.5709 26.8937 19.9254 26.8815 21.0327 26.8301C22.1376 26.7788 22.8929 26.6052 23.5554 26.3461C24.2374 26.0797 24.8167 25.7252 25.396 25.1484C25.9729 24.5715 26.3298 23.9921 26.5938 23.3077C26.8505 22.6477 27.0265 21.8924 27.0778 20.785C27.1292 19.6777 27.1414 19.3232 27.1414 16.5024C27.1414 13.6815 27.1292 13.327 27.0778 12.2197C27.0265 11.1148 26.8529 10.3595 26.5938 9.69702C26.3274 9.01502 25.9729 8.43569 25.396 7.85636C24.8192 7.27947 24.2398 6.92258 23.5554 6.65858C22.8954 6.40191 22.14 6.22591 21.0327 6.17458C19.9254 6.12325 19.5709 6.11102 16.75 6.11102Z" fill="white"/>
<path d="M16.75 11.166C13.8045 11.166 11.4163 13.5542 11.4163 16.4998C11.4163 19.4453 13.8045 21.8336 16.75 21.8336C19.6956 21.8336 22.0838 19.4453 22.0838 16.4998C22.0838 13.5542 19.6956 11.166 16.75 11.166ZM16.75 19.9636C14.8385 19.9636 13.2863 18.4138 13.2863 16.4998C13.2863 14.5858 14.836 13.036 16.75 13.036C18.664 13.036 20.2138 14.5858 20.2138 16.4998C20.2138 18.4138 18.664 19.9636 16.75 19.9636Z" fill="white"/>
<path d="M22.2965 12.1998C22.985 12.1998 23.5431 11.6417 23.5431 10.9531C23.5431 10.2646 22.985 9.70648 22.2965 9.70648C21.608 9.70648 21.0498 10.2646 21.0498 10.9531C21.0498 11.6417 21.608 12.1998 22.2965 12.1998Z" fill="white"/>
</svg>
