<svg width="57" height="58" viewBox="0 0 57 58" fill="none" xmlns="http://www.w3.org/2000/svg">
<g clip-path="url(#clip0_1216_448)">
<path d="M57 26.3488C57 22.4153 53.8775 19.2267 50.051 19.2267H40.3201V9.25344C40.3201 5.00579 37.9357 0.699951 33.3711 0.699951C28.8066 0.699951 26.4221 5.00579 26.4221 9.25344V13.1869L21.4034 18.3306L14.988 20.4603C14.3635 18.9008 12.8761 17.8069 11.1275 17.8069H4.16713C1.86215 17.8069 0 19.7155 0 22.0779V53.429C0 55.7914 1.86215 57.7 4.16713 57.7H11.1161C13.4211 57.7 15.2833 55.7914 15.2833 53.429V52.8704L21.3125 56.9901C21.9938 57.4556 22.8 57.7116 23.6289 57.7116H50.0396C53.8775 57.7116 56.9886 54.5113 56.9886 50.5895V49.1697C56.9886 48.39 56.7843 47.6569 56.4323 47.0285C56.7843 46.4 56.9886 45.6669 56.9886 44.8872V40.6162C56.9886 39.8365 56.7843 39.1034 56.4323 38.475C56.7843 37.8465 56.9886 37.1134 56.9886 36.3337V32.0628C56.9886 31.283 56.7843 30.5499 56.4323 29.9215C56.7843 29.2931 56.9886 28.5599 56.9886 27.7802V26.3604L57 26.3488ZM11.1275 53.4174H4.16713V22.0662H11.1161V53.4174H11.1275ZM52.8329 27.7686H50.7436C49.5968 27.7686 48.6544 28.7228 48.6544 29.9098C48.6544 31.0968 49.5855 32.0511 50.7436 32.0511H52.8329V36.322H50.7436C49.5968 36.322 48.6544 37.2763 48.6544 38.4633C48.6544 39.6503 49.5855 40.6046 50.7436 40.6046H52.8329V44.8755H50.7436C49.5968 44.8755 48.6544 45.8298 48.6544 47.0168C48.6544 48.2038 49.5855 49.1581 50.7436 49.1581H52.8329V50.5779C52.8329 52.1489 51.5839 53.429 50.051 53.429H23.6402L15.2946 47.7267V24.8476L23.6402 22.0779L30.5892 14.9558V9.25344C30.5892 9.25344 30.5892 4.98252 33.3711 4.98252C36.153 4.98252 36.153 9.25344 36.153 9.25344V23.4976H50.051C51.5839 23.4976 52.8329 24.7777 52.8329 26.3488V27.7686Z" fill="#F77F00"/>
</g>
<defs>
<clipPath id="clip0_1216_448">
<rect width="57" height="57" fill="white" transform="translate(0 0.699951)"/>
</clipPath>
</defs>
</svg>
