<svg width="57" height="58" viewBox="0 0 57 58" fill="none" xmlns="http://www.w3.org/2000/svg">
<path d="M51.4657 42.8551C53.5335 38.7196 53.6376 27.8757 53.6376 10.5277C53.6376 9.44272 52.7571 8.56215 51.6721 8.56215C44.032 8.56215 36.8833 6.16811 29.1764 1.03016C28.5159 0.58988 27.657 0.58988 26.9966 1.03016C19.2877 6.16811 12.139 8.56215 4.49888 8.56215C3.41389 8.56215 2.53333 9.44272 2.53333 10.5277C2.53333 27.8757 2.6375 38.7196 4.70526 42.8551C8.52236 50.4874 16.0426 55.3324 27.6983 57.6616C27.9538 57.7108 28.2015 57.7147 28.4707 57.6616C40.1264 55.3324 47.6486 50.4874 51.4657 42.8551ZM28.0855 53.7285C17.9197 51.6274 11.4196 47.4919 8.22359 41.096C6.54894 37.7506 6.46836 25.1239 6.46443 12.4441C13.7429 12.0726 20.8464 9.62945 28.0855 5.01237C35.3246 9.62945 42.4281 12.0726 49.7065 12.4441C49.7026 25.1239 49.622 37.7506 47.9474 41.0979C44.7514 47.4938 38.2513 51.6274 28.0855 53.7285Z" fill="#F77F00"/>
<path d="M31.4191 12.45C30.7134 11.2471 29.4673 10.5277 28.0855 10.5277C26.7037 10.5277 25.4575 11.2471 24.7519 12.452L10.94 36.0523C10.2245 37.273 10.2186 38.7963 10.9223 40.0247C11.624 41.2473 12.876 41.9765 14.2736 41.9765H41.8974C43.2949 41.9765 44.547 41.2473 45.2487 40.0247C45.9523 38.7963 45.9445 37.2749 45.231 36.0523L31.4191 12.45ZM14.3325 38.0376L28.0265 14.4352L41.8188 38.0454L14.3325 38.0376Z" fill="#F77F00"/>
<path d="M28.0855 20.3553C29.1705 20.3553 30.0511 21.2359 30.0511 22.3209V28.2175C30.0511 29.3025 29.1705 30.1831 28.0855 30.1831C27.0006 30.1831 26.12 29.3025 26.12 28.2175V22.3209C26.12 21.2359 27.0006 20.3553 28.0855 20.3553Z" fill="#F77F00"/>
<path d="M30.0511 34.1144C30.0511 35.1993 29.1705 36.0799 28.0855 36.0799C27.0006 36.0799 26.12 35.1993 26.12 34.1144C26.12 33.0294 27.0006 32.1488 28.0855 32.1488C29.1705 32.1488 30.0511 33.0294 30.0511 34.1144Z" fill="#F77F00"/>
</svg>
