<svg width="57" height="58" viewBox="0 0 57 58" fill="none" xmlns="http://www.w3.org/2000/svg">
<path d="M51.4657 42.8551C53.5335 38.7196 53.6376 27.8757 53.6376 10.5277C53.6376 9.44272 52.7571 8.56215 51.6721 8.56215C44.032 8.56215 36.8833 6.16811 29.1764 1.03016C28.5159 0.58988 27.657 0.58988 26.9966 1.03016C19.2877 6.16811 12.139 8.56215 4.49888 8.56215C3.41389 8.56215 2.53333 9.44272 2.53333 10.5277C2.53333 27.8757 2.6375 38.7196 4.70526 42.8551C8.52236 50.4874 16.0426 55.3324 27.6983 57.6616C27.9538 57.7108 28.2015 57.7147 28.4707 57.6616C40.1264 55.3324 47.6486 50.4874 51.4657 42.8551ZM28.0855 53.7285C17.9197 51.6274 11.4196 47.4919 8.22359 41.096C6.54894 37.7506 6.46836 25.1239 6.46443 12.4441C13.7429 12.0726 20.8464 9.62945 28.0855 5.01237C35.3246 9.62945 42.4281 12.0726 49.7065 12.4441C49.7026 25.1239 49.622 37.7506 47.9474 41.0979C44.7514 47.4938 38.2513 51.6274 28.0855 53.7285Z" fill="#F77F00"/>
<path d="M20.4156 28.613L26.4224 34.2294L37.1804 24.1705" stroke="#F77F00" stroke-width="4" stroke-miterlimit="10" stroke-linecap="round" stroke-linejoin="round"/>
</svg>
