<svg width="58" height="58" viewBox="0 0 58 58" fill="none" xmlns="http://www.w3.org/2000/svg">
<path fill-rule="evenodd" clip-rule="evenodd" d="M28.1057 0.798724C28.6898 0.46494 29.4069 0.46494 29.991 0.798724L56.591 15.9987C57.183 16.337 57.5483 16.9666 57.5483 17.6484V20.384C57.5483 37.6072 46.1309 52.7437 29.5703 57.4753C29.2292 57.5728 28.8675 57.5728 28.5264 57.4753C11.9658 52.7437 0.54834 37.6072 0.54834 20.384V17.6484C0.54834 16.9666 0.913683 16.337 1.50568 15.9987L28.1057 0.798724ZM4.34834 18.751V20.384C4.34834 35.729 14.4017 49.2365 29.0483 53.668C43.6949 49.2365 53.7483 35.729 53.7483 20.384V18.751L29.0483 4.63671L4.34834 18.751ZM43.832 20.7353L28.632 39.7353C28.3131 40.1339 27.8472 40.3875 27.3393 40.4388C26.8314 40.4901 26.3242 40.3348 25.932 40.008L14.532 30.508L16.9647 27.5888L26.8756 35.8478L40.8647 18.3615L43.832 20.7353Z" fill="url(#paint0_linear_1218_10572)"/>
<defs>
<linearGradient id="paint0_linear_1218_10572" x1="0.548339" y1="28.3856" x2="48.565" y2="7.61661" gradientUnits="userSpaceOnUse">
<stop offset="0.13" stop-color="#D62828"/>
<stop offset="0.54" stop-color="#F77F00"/>
<stop offset="0.55" stop-color="#F68000"/>
<stop offset="0.69" stop-color="#F59600"/>
<stop offset="0.84" stop-color="#F4A300"/>
<stop offset="0.97" stop-color="#F4A800"/>
</linearGradient>
</defs>
</svg>
