<svg width="34" height="34" viewBox="0 0 34 34" fill="none" xmlns="http://www.w3.org/2000/svg">
<path fill-rule="evenodd" clip-rule="evenodd" d="M1 15.1999C1 7.54157 7.20832 1.33325 14.8667 1.33325C22.525 1.33325 28.7333 7.54157 28.7333 15.1999C28.7333 18.6451 27.4769 21.7969 25.3973 24.222L32.6876 31.5123L31.1791 33.0208L23.8888 25.7305C21.4637 27.8102 18.3119 29.0666 14.8667 29.0666C7.20832 29.0666 1 22.8583 1 15.1999ZM14.8667 3.46659C8.38653 3.46659 3.13333 8.71978 3.13333 15.1999C3.13333 21.6801 8.38653 26.9333 14.8667 26.9333C21.3468 26.9333 26.6 21.6801 26.6 15.1999C26.6 8.71978 21.3468 3.46659 14.8667 3.46659Z" fill="#B0B0B0" stroke="#B0B0B0"/>
</svg>
