<svg width="40" height="41" viewBox="0 0 40 41" fill="none" xmlns="http://www.w3.org/2000/svg">
<path d="M29.611 18.2853L29.611 18.2852L19.5951 4.92613L9.57941 18.2851L9.57929 18.2852C7.98905 20.4059 7.15334 22.9126 7.15334 25.5556C7.15334 32.2811 12.7071 37.8103 19.5951 37.8103C26.4831 37.8103 32.0369 32.2811 32.0369 25.5556C32.0369 22.9126 31.2011 20.4059 29.611 18.2853Z" stroke="#28A2D6" stroke-width="5"/>
<path d="M29.611 18.2853L29.611 18.2852L19.5951 4.92613L9.57941 18.2851L9.57929 18.2852C7.98905 20.4059 7.15334 22.9126 7.15334 25.5556C7.15334 32.2811 12.7071 37.8103 19.5951 37.8103C26.4831 37.8103 32.0369 32.2811 32.0369 25.5556C32.0369 22.9126 31.2011 20.4059 29.611 18.2853Z" stroke="url(#paint0_linear_1179_9177)" stroke-opacity="0.2" stroke-width="5"/>
<defs>
<linearGradient id="paint0_linear_1179_9177" x1="34.5369" y1="20.5344" x2="4.65334" y2="20.5344" gradientUnits="userSpaceOnUse">
<stop stop-color="#69D2FF"/>
<stop offset="1" stop-color="#28A2D6"/>
</linearGradient>
</defs>
</svg>
