<svg width="33" height="33" viewBox="0 0 33 33" fill="none" xmlns="http://www.w3.org/2000/svg">
<g clip-path="url(#clip0_1219_5169)">
<path d="M16.2499 32.9999C25.0864 32.9999 32.2499 25.6126 32.2499 16.4999C32.2499 7.38724 25.0864 -6.10352e-05 16.2499 -6.10352e-05C7.41332 -6.10352e-05 0.249878 7.38724 0.249878 16.4999C0.249878 25.6126 7.41332 32.9999 16.2499 32.9999Z" fill="black"/>
<path d="M26.471 11.2053C26.2268 10.2593 25.5038 9.51377 24.5841 9.25954C22.9201 8.79999 16.2499 8.79999 16.2499 8.79999C16.2499 8.79999 9.5797 8.79999 7.9157 9.25954C6.99836 9.51377 6.2754 10.2569 6.02888 11.2053C5.58325 12.9213 5.58325 16.5 5.58325 16.5C5.58325 16.5 5.58325 20.0787 6.02888 21.7947C6.27303 22.7407 6.99599 23.4862 7.9157 23.7404C9.5797 24.2 16.2499 24.2 16.2499 24.2C16.2499 24.2 22.9201 24.2 24.5841 23.7404C25.5015 23.4862 26.2244 22.7431 26.471 21.7947C26.9166 20.0787 26.9166 16.5 26.9166 16.5C26.9166 16.5 26.9166 12.9213 26.471 11.2053ZM14.1166 19.8V13.2L19.6585 16.5L14.1166 19.8Z" fill="white"/>
</g>
<defs>
<clipPath id="clip0_1219_5169">
<rect width="32" height="33" fill="white" transform="translate(0.25)"/>
</clipPath>
</defs>
</svg>
