<svg width="457" height="240" viewBox="0 0 457 240" fill="none" xmlns="http://www.w3.org/2000/svg">
<g clip-path="url(#clip0_1216_5207)">
<path d="M0 111.739C0 103.913 0 96.1567 0.199919 88.331H41.783V96.8243C34.4046 97.0236 27.7654 97.0236 19.6478 97.0236H10.1912V111.405H10.3911C11.5999 108.864 13.5433 107.858 16.6304 107.858H19.0434C26.9565 107.858 32.3915 107.858 39.7699 107.993V116.421C32.3915 116.555 26.6217 116.555 18.7784 116.555H10.1912V135.146H0.199919C0 127.32 0 119.564 0 111.739Z" fill="white"/>
<path d="M49.431 111.739C49.431 103.913 49.431 96.1567 49.631 88.331H59.4921C59.6269 96.1567 59.6269 103.913 59.6269 111.739C59.6269 119.564 59.6269 127.32 59.4921 135.146H49.631C49.431 127.32 49.431 119.564 49.431 111.739Z" fill="white"/>
<path d="M68.8789 111.739C68.8789 103.913 68.8789 96.1567 69.0789 88.331H117.371C117.571 91.8776 117.571 94.0844 117.571 101.91C117.636 108.331 113.949 112.007 110.797 113.148C115.627 115.155 117.975 118.498 117.975 123.449C117.975 127.126 117.975 131.474 117.91 135.155H107.849V125.457C107.849 122.114 106.24 119.369 101.745 119.369H79.0748V135.155H69.0835C68.8836 127.33 68.8836 119.573 68.8836 111.748M79.2747 113.945C80.4138 111.873 82.0922 110.867 85.0444 110.867H100.606C105.836 110.867 107.314 107.455 107.314 103.978V96.9541H79.0794V113.941H79.2794L79.2747 113.945Z" fill="white"/>
<path d="M126.558 111.739C126.558 103.913 126.558 96.1567 126.758 88.331H168.81V96.4256C161.432 96.6249 155.193 96.6249 146.61 96.6249H136.749V110.737H136.949C138.158 108.197 139.831 107.325 142.853 107.325H146.61C154.593 107.325 160.428 107.325 167.267 107.459V115.216C160.423 115.35 154.588 115.35 146.61 115.35H136.749V126.453H146.875C155.393 126.453 161.632 126.453 169.075 126.653V135.146H126.753C126.553 127.32 126.553 119.564 126.553 111.739" fill="white"/>
<path d="M213.006 88.331H222.398C230.515 102.712 240.307 119.699 248.689 135.146H237.155L232.394 125.985H203.015L198.184 135.146H186.65C194.967 120.232 204.489 103.31 213.011 88.331M218.107 98.4284H217.302L206.372 119.495L206.572 119.56C208.046 118.09 209.454 117.487 211.872 117.487H227.833L218.107 98.4284Z" fill="white"/>
<path d="M253.515 111.739C253.515 103.913 253.515 96.1567 253.715 88.331H263.707V129.93H263.907C265.046 127.056 266.724 126.319 269.676 126.319H277.055C283.629 126.319 288.929 126.319 295.968 126.518V135.146H253.711C253.511 127.32 253.511 119.564 253.511 111.739" fill="white"/>
<path d="M303.277 111.739C303.277 103.913 303.277 96.1567 303.476 88.331H345.529V96.4256C338.151 96.6249 331.911 96.6249 323.329 96.6249H313.468V110.737H313.668C314.876 108.197 316.55 107.325 319.572 107.325H323.329C331.312 107.325 337.146 107.325 343.986 107.459V115.216C337.142 115.35 331.307 115.35 323.329 115.35H313.468V126.453H323.594C332.111 126.453 338.351 126.453 345.794 126.653V135.146H303.472C303.272 127.32 303.272 119.564 303.272 111.739" fill="white"/>
<path d="M353.847 111.739C353.847 103.913 353.847 96.1567 354.047 88.331H402.339C402.538 91.8776 402.538 94.0844 402.538 101.91C402.604 108.331 398.917 112.007 395.764 113.148C400.595 115.155 402.943 118.498 402.943 123.449C402.943 127.126 402.943 131.474 402.873 135.155H392.812V125.457C392.812 122.114 391.204 119.369 386.708 119.369H364.038V135.155H354.047C353.847 127.33 353.847 119.573 353.847 111.748M364.242 113.945C365.381 111.873 367.06 110.867 370.012 110.867H385.573C390.804 110.867 392.282 107.455 392.282 103.978V96.9541H364.047V113.941H364.247L364.242 113.945Z" fill="white"/>
<path d="M427.891 112.207C427.891 106.523 427.891 102.309 427.956 96.9587C421.586 96.9587 415.817 96.9587 409.108 96.7594V88.331H456.995V96.7594C449.821 96.9587 443.982 96.9587 437.812 96.9587H435.33V97.1581C437.343 98.229 438.147 99.8331 438.147 102.04V112.207C438.147 120.032 438.147 127.32 437.878 135.146H428.151C427.882 127.32 427.882 120.032 427.882 112.207" fill="white"/>
<path d="M279.533 141.576C269.235 159.017 250.219 170.756 228.498 170.756C206.776 170.756 187.761 159.017 177.463 141.576H169.745C180.671 162.884 202.899 177.51 228.498 177.51C254.097 177.51 276.325 162.884 287.251 141.576H279.533Z" fill="#F4A800"/>
<path d="M327.88 83.324H334.906C323.38 40.445 286.418 7.83958 241.204 2.63791C241.962 5.1043 243.254 7.52896 245.114 9.99535C284.791 16.4163 316.964 45.4288 327.88 83.324Z" fill="#D62828"/>
<path d="M220.129 8.99397C220.947 6.86601 221.905 4.87714 223.025 2.99026C223.225 2.65183 223.439 2.33194 223.648 2.00742C174.906 4.1261 134.285 37.9833 122.094 83.3194H129.12C140.78 42.828 176.709 12.4757 220.129 8.98933" fill="#D62828"/>
<path d="M228.498 214.822C181.898 214.822 142.407 183.913 129.543 141.576H122.48C135.549 187.687 178.127 221.572 228.498 221.572C278.868 221.572 321.446 187.687 334.515 141.576H327.453C314.588 183.913 275.097 214.822 228.498 214.822Z" fill="#D62828"/>
<path d="M142.5 83.324H149.669C157.736 61.1358 174.975 43.2962 196.79 34.3764C197.72 31.3305 199.086 28.4098 200.83 25.7302C173.376 34.5341 151.585 56.064 142.5 83.3287" fill="#F77F00"/>
<path d="M307.331 83.3241H314.5C305.508 56.3282 284.061 34.9467 256.988 25.9805C258.495 28.7019 259.643 31.5345 260.424 34.4553C282.141 43.4075 299.292 61.2054 307.335 83.3241" fill="#F77F00"/>
<path d="M228.498 195.322C192.815 195.322 162.278 172.972 150.204 141.581H142.988C155.374 176.773 189.025 202.077 228.498 202.077C267.97 202.077 301.617 176.773 314.007 141.581H306.791C294.717 172.976 264.176 195.322 228.498 195.322Z" fill="#F77F00"/>
<path d="M169.02 83.324H176.644C181.986 73.6671 189.96 65.656 199.598 60.255C198.538 58.3078 197.654 56.2216 196.962 53.987C184.846 60.5934 175.022 70.8762 169.02 83.324Z" fill="#F4A800"/>
<path d="M280.356 83.3241H287.98C281.988 70.904 272.201 60.6398 260.122 54.0287C259.425 56.1984 258.509 58.2847 257.398 60.2457C267.035 65.6467 275.014 73.6625 280.356 83.3194" fill="#F4A800"/>
<mask id="mask0_1216_5207" style="mask-type:luminance" maskUnits="userSpaceOnUse" x="202" y="0" width="53" height="70">
<path d="M227.191 7.80714C224.225 12.8002 222.9 18.2939 222.244 23.9963C221.933 26.7223 221.947 29.4622 221.942 32.4339C217.005 29.8841 215.675 25.5772 215.405 20.5934C215.019 20.802 214.782 20.9179 214.559 21.057C205.837 26.5137 200.895 37.2415 202.797 47.4687C204.824 58.382 211.398 65.3871 222.11 68.4701C223.314 68.8178 224.564 69.0125 225.792 69.2768H231.227C231.566 68.9847 231.994 69.0496 232.389 68.994C244.817 67.223 254.389 56.3375 254.603 43.8294C254.724 36.7269 252.502 30.4219 248.262 24.7983C245.705 21.4047 242.975 18.1502 240.4 14.7705C237.964 11.5763 236.136 8.06212 235.416 4.06583C235.179 2.7631 235.086 1.43718 234.909 0C231.543 1.96106 229.083 4.61753 227.191 7.80714Z" fill="white"/>
</mask>
<g mask="url(#mask0_1216_5207)">
<path d="M254.72 0H200.895V69.2721H254.72V0Z" fill="url(#paint0_linear_1216_5207)"/>
</g>
<path d="M105.934 147.357L117.789 144.284L119.119 148.966C119.151 149.077 119.189 149.217 119.226 149.393C119.268 149.569 119.296 149.731 119.31 149.889C119.393 150.57 119.319 151.173 119.086 151.692C118.859 152.211 118.505 152.643 118.026 152.99C117.547 153.338 116.985 153.593 116.329 153.765C115.683 153.931 115.06 153.982 114.465 153.908C113.87 153.839 113.335 153.635 112.866 153.296C112.391 152.958 112.015 152.48 111.722 151.854C111.657 151.715 111.596 151.558 111.536 151.386C111.476 151.215 111.429 151.076 111.401 150.969L110.611 148.183L106.468 149.258L105.929 147.362L105.934 147.357ZM112.47 147.701L113.238 150.408C113.266 150.515 113.307 150.631 113.354 150.76C113.4 150.89 113.456 151.001 113.521 151.103C113.693 151.395 113.907 151.604 114.167 151.734C114.428 151.859 114.702 151.929 114.986 151.933C115.269 151.943 115.539 151.91 115.79 151.845C116.041 151.78 116.292 151.674 116.534 151.53C116.78 151.386 116.98 151.196 117.134 150.96C117.287 150.723 117.366 150.44 117.357 150.102C117.357 149.986 117.343 149.856 117.315 149.726C117.287 149.592 117.259 149.476 117.227 149.37L116.46 146.662L112.457 147.701H112.47Z" fill="white"/>
<path d="M109.825 159.847L118.459 156.764L119.096 158.391L116.994 159.142L117.19 158.846C117.515 158.846 117.831 158.887 118.138 158.975C118.44 159.059 118.719 159.198 118.966 159.379C119.189 159.532 119.389 159.717 119.57 159.935C119.747 160.153 119.9 160.389 120.016 160.64C120.137 160.895 120.225 161.15 120.277 161.409L118.477 162.054C118.459 161.785 118.37 161.493 118.222 161.182C118.073 160.876 117.864 160.621 117.608 160.422C117.362 160.218 117.101 160.079 116.813 159.995C116.525 159.912 116.227 159.889 115.911 159.912C115.595 159.935 115.274 160.009 114.944 160.125L110.555 161.692L109.834 159.842L109.825 159.847Z" fill="white"/>
<path d="M114.79 171.854C114.381 171.066 114.209 170.287 114.274 169.523C114.339 168.758 114.614 168.058 115.102 167.422C115.59 166.787 116.255 166.268 117.106 165.865C117.971 165.452 118.817 165.257 119.64 165.281C120.463 165.304 121.211 165.522 121.885 165.934C122.559 166.347 123.094 166.945 123.499 167.719C123.912 168.512 124.084 169.291 124.019 170.056C123.954 170.821 123.68 171.521 123.192 172.156C122.708 172.791 122.039 173.315 121.188 173.718C120.332 174.126 119.491 174.316 118.668 174.302C117.84 174.284 117.092 174.066 116.418 173.653C115.744 173.241 115.2 172.638 114.79 171.85M116.515 171.034C116.878 171.734 117.394 172.137 118.064 172.249C118.728 172.355 119.449 172.225 120.225 171.859C121.025 171.479 121.574 171.006 121.871 170.431C122.169 169.856 122.136 169.226 121.778 168.535C121.532 168.062 121.22 167.728 120.839 167.529C120.458 167.33 120.035 167.251 119.565 167.293C119.096 167.334 118.598 167.478 118.078 167.724C117.278 168.104 116.729 168.581 116.436 169.156C116.139 169.731 116.171 170.357 116.52 171.034" fill="white"/>
<path d="M121.983 183.89C121.574 183.445 121.225 182.981 120.937 182.494C120.649 182.007 120.477 181.53 120.411 181.052C120.346 180.575 120.444 180.13 120.7 179.722C120.932 179.356 121.225 179.064 121.574 178.85C121.927 178.637 122.327 178.405 122.773 178.146L129.654 174.223L130.705 175.902L123.926 179.764C123.61 179.944 123.331 180.107 123.094 180.25C122.857 180.394 122.694 180.552 122.597 180.728C122.406 181.062 122.411 181.423 122.606 181.813C122.801 182.202 123.085 182.61 123.452 183.041L121.974 183.885L121.983 183.89ZM125.219 174.896L126.604 174.108L129.896 179.379L128.51 180.167L125.219 174.896Z" fill="white"/>
<path d="M126.516 190.677C125.967 189.954 125.651 189.207 125.567 188.433C125.479 187.659 125.614 186.922 125.963 186.212C126.311 185.508 126.865 184.891 127.618 184.367C128.431 183.802 129.254 183.463 130.082 183.347C130.91 183.231 131.691 183.324 132.425 183.625C133.16 183.931 133.792 184.432 134.322 185.132C134.88 185.874 135.178 186.625 135.205 187.395C135.233 188.164 135.015 188.901 134.545 189.606C134.076 190.315 133.369 190.946 132.43 191.502L131.235 189.926L131.844 189.504C132.653 188.938 133.141 188.396 133.309 187.867C133.481 187.339 133.346 186.787 132.909 186.212C132.416 185.559 131.839 185.22 131.175 185.197C130.514 185.174 129.775 185.438 128.966 185.999C128.208 186.523 127.743 187.084 127.571 187.687C127.399 188.289 127.539 188.897 127.999 189.504C128.297 189.898 128.645 190.172 129.04 190.329C129.436 190.487 129.868 190.524 130.328 190.44L131.021 192.355C130.142 192.545 129.301 192.49 128.497 192.174C127.692 191.864 127.027 191.363 126.511 190.677M128.134 185.814L129.389 184.947L133.104 189.852L131.849 190.723L128.134 185.814Z" fill="white"/>
<path d="M134.634 200.264C134.001 199.587 133.62 198.873 133.485 198.127C133.355 197.381 133.443 196.644 133.755 195.925C134.066 195.206 134.564 194.548 135.252 193.95C135.959 193.352 136.707 192.953 137.498 192.749C138.288 192.545 139.06 192.55 139.827 192.768C140.589 192.981 141.282 193.426 141.905 194.089C142.602 194.835 142.998 195.633 143.086 196.486C143.179 197.339 142.956 198.132 142.426 198.869L140.65 197.765C140.91 197.339 141.022 196.903 140.98 196.463C140.938 196.022 140.761 195.637 140.45 195.299C140.092 194.919 139.706 194.687 139.283 194.599C138.864 194.516 138.432 194.553 137.995 194.72C137.553 194.886 137.126 195.146 136.702 195.508C136.052 196.064 135.652 196.657 135.512 197.279C135.373 197.905 135.559 198.489 136.075 199.04C136.437 199.43 136.819 199.657 137.214 199.722C137.609 199.787 138.037 199.722 138.497 199.536L139.543 201.331C138.655 201.725 137.786 201.831 136.935 201.646C136.084 201.46 135.317 201.001 134.634 200.269" fill="white"/>
<path d="M144.685 209.523C144.16 209.207 143.69 208.85 143.277 208.461C142.858 208.071 142.551 207.654 142.351 207.214C142.151 206.773 142.114 206.324 142.24 205.86C142.356 205.443 142.551 205.086 142.83 204.789C143.105 204.492 143.421 204.159 143.779 203.797L149.242 198.197L150.739 199.532L145.359 205.049C145.108 205.308 144.89 205.535 144.704 205.735C144.518 205.934 144.406 206.134 144.364 206.324C144.281 206.699 144.392 207.042 144.695 207.362C144.997 207.682 145.387 208.002 145.866 208.312L144.69 209.518L144.685 209.523ZM145.164 200.023L146.261 198.897L150.962 203.083L149.865 204.21L145.164 200.023Z" fill="white"/>
<path d="M148.288 212.434L154.091 205.591L155.69 206.829L149.892 213.672L148.293 212.434H148.288ZM154.969 204.553L156.155 203.153L157.754 204.39L156.569 205.79L154.969 204.553Z" fill="white"/>
<path d="M153.998 216.741L159.182 209.462L160.697 210.445L159.089 212.703L159.293 212.837L155.718 217.858L153.998 216.741ZM159.279 220.176L161.776 216.671C161.939 216.444 162.101 216.175 162.269 215.879C162.432 215.577 162.548 215.262 162.613 214.924C162.678 214.59 162.65 214.261 162.529 213.941C162.408 213.621 162.148 213.329 161.743 213.064C161.525 212.925 161.288 212.819 161.027 212.749C160.767 212.68 160.493 212.67 160.205 212.721C159.916 212.772 159.619 212.907 159.312 213.129C159.005 213.347 158.694 213.681 158.377 214.121L157.661 213.055C158.103 212.434 158.628 211.956 159.237 211.618C159.847 211.28 160.502 211.117 161.204 211.136C161.906 211.154 162.613 211.395 163.329 211.864C163.891 212.23 164.296 212.624 164.533 213.041C164.77 213.459 164.9 213.88 164.919 214.298C164.938 214.715 164.886 215.118 164.765 215.498C164.645 215.879 164.5 216.222 164.333 216.523C164.166 216.824 164.017 217.061 163.891 217.237L160.995 221.303L159.275 220.181L159.279 220.176Z" fill="white"/>
<path d="M166.695 229.193C166.244 228.962 165.849 228.674 165.509 228.331C165.17 227.983 164.905 227.603 164.714 227.181C164.524 226.759 164.421 226.319 164.412 225.855L166.523 225.916C166.523 226.277 166.625 226.602 166.83 226.88C167.039 227.163 167.299 227.385 167.625 227.548C168.001 227.742 168.373 227.849 168.741 227.872C169.108 227.895 169.443 227.826 169.745 227.663C170.047 227.501 170.293 227.232 170.493 226.857L171.725 224.65L171.953 224.766L175.254 218.864L176.84 219.676L172.288 227.816C172.176 228.011 172.065 228.197 171.949 228.368C171.832 228.54 171.702 228.702 171.567 228.855C171.168 229.295 170.703 229.592 170.182 229.74C169.661 229.889 169.103 229.917 168.508 229.815C167.918 229.717 167.313 229.509 166.7 229.198M168.466 225.661C167.718 225.281 167.165 224.766 166.811 224.122C166.453 223.477 166.295 222.768 166.337 221.994C166.374 221.219 166.616 220.44 167.048 219.666C167.49 218.878 168.034 218.257 168.689 217.798C169.34 217.339 170.052 217.075 170.819 217.01C171.586 216.94 172.353 217.103 173.12 217.497C173.892 217.891 174.441 218.401 174.766 219.026C175.092 219.652 175.217 220.343 175.138 221.099C175.064 221.854 174.808 222.624 174.371 223.408C173.938 224.177 173.413 224.808 172.795 225.29C172.176 225.772 171.498 226.055 170.763 226.143C170.024 226.226 169.261 226.069 168.466 225.665M169.615 224.251C170.098 224.502 170.554 224.594 170.968 224.534C171.386 224.474 171.772 224.288 172.121 223.973C172.474 223.663 172.79 223.25 173.069 222.749C173.353 222.239 173.534 221.762 173.608 221.307C173.683 220.853 173.636 220.45 173.464 220.088C173.292 219.727 172.976 219.425 172.516 219.193C172.028 218.948 171.563 218.855 171.121 218.92C170.679 218.985 170.27 219.175 169.908 219.481C169.54 219.791 169.229 220.181 168.964 220.649C168.699 221.122 168.531 221.59 168.462 222.054C168.392 222.517 168.452 222.935 168.629 223.319C168.81 223.7 169.136 224.01 169.605 224.251" fill="white"/>
<path d="M182.6 231.627L187.054 220.422L188.974 221.122L184.525 232.323L182.6 231.627Z" fill="white"/>
<path d="M189.439 233.955L192.21 225.559L194.172 226.147L191.401 234.543L189.439 233.955ZM192.629 224.279L193.196 222.559L195.158 223.148L194.591 224.868L192.629 224.279Z" fill="white"/>
<path d="M198.798 236.472L197.622 227.177L199.626 227.622L200.379 234.339L204.14 228.618L206.153 229.068L200.811 236.922L198.798 236.472Z" fill="white"/>
<path d="M212.109 239.064C211.184 238.948 210.398 238.656 209.752 238.183C209.106 237.714 208.631 237.112 208.334 236.384C208.036 235.656 207.948 234.849 208.069 233.968C208.199 233.013 208.506 232.211 208.985 231.553C209.464 230.899 210.073 230.417 210.807 230.116C211.542 229.815 212.36 229.717 213.257 229.828C214.206 229.949 214.982 230.26 215.587 230.765C216.191 231.27 216.6 231.929 216.819 232.74C217.033 233.551 217.033 234.474 216.809 235.508L214.787 235.253L214.885 234.543C215.01 233.593 214.926 232.879 214.643 232.401C214.359 231.924 213.848 231.637 213.109 231.544C212.272 231.437 211.621 231.609 211.147 232.049C210.672 232.49 210.37 233.185 210.24 234.135C210.119 235.021 210.231 235.73 210.57 236.263C210.909 236.801 211.467 237.116 212.248 237.214C212.751 237.279 213.197 237.223 213.592 237.056C213.987 236.889 214.308 236.616 214.559 236.236L216.493 237.07C216.038 237.812 215.41 238.359 214.624 238.702C213.834 239.05 212.997 239.166 212.118 239.054M209.519 234.604L209.719 233.134L216.005 233.922L215.805 235.392L209.519 234.604Z" fill="white"/>
<path d="M224.509 239.995C223.37 239.963 222.454 239.694 221.761 239.184C221.064 238.674 220.654 237.974 220.529 237.089L222.635 236.838C222.728 237.274 222.96 237.626 223.318 237.886C223.681 238.146 224.141 238.285 224.704 238.299C225.201 238.313 225.583 238.229 225.862 238.048C226.136 237.867 226.28 237.617 226.289 237.293C226.294 237.093 226.252 236.926 226.154 236.801C226.057 236.676 225.848 236.551 225.513 236.43C225.183 236.305 224.671 236.147 223.983 235.953C223.216 235.735 222.607 235.508 222.161 235.267C221.714 235.03 221.394 234.752 221.203 234.437C221.012 234.121 220.929 233.746 220.938 233.306C220.957 232.758 221.119 232.281 221.435 231.882C221.747 231.484 222.179 231.182 222.728 230.978C223.277 230.774 223.914 230.682 224.648 230.705C225.364 230.728 225.996 230.848 226.545 231.076C227.094 231.303 227.531 231.618 227.861 232.021C228.191 232.42 228.386 232.888 228.447 233.417L226.336 233.714C226.299 233.338 226.127 233.037 225.829 232.809C225.531 232.582 225.132 232.448 224.625 232.406C224.141 232.364 223.751 232.425 223.449 232.582C223.146 232.74 222.993 232.967 222.984 233.264C222.984 233.431 223.035 233.579 223.151 233.7C223.267 233.825 223.504 233.95 223.862 234.08C224.22 234.21 224.755 234.372 225.466 234.567C226.196 234.766 226.777 234.988 227.21 235.234C227.642 235.48 227.954 235.763 228.14 236.087C228.326 236.412 228.409 236.806 228.395 237.26C228.368 238.146 228.01 238.832 227.317 239.319C226.629 239.805 225.69 240.028 224.499 239.995" fill="white"/>
<path d="M241.371 239.379C240.711 239.453 240.135 239.393 239.651 239.203C239.163 239.013 238.777 238.734 238.498 238.359C238.215 237.983 238.043 237.557 237.987 237.079C237.936 236.657 237.964 236.273 238.071 235.916C238.177 235.563 238.368 235.243 238.642 234.965C238.917 234.687 239.289 234.441 239.754 234.228C240.107 234.075 240.525 233.927 241.009 233.778C241.492 233.63 242.018 233.486 242.59 233.347C243.161 233.204 243.757 233.055 244.375 232.893L243.696 233.37C243.631 232.768 243.431 232.337 243.11 232.082C242.79 231.827 242.287 231.739 241.599 231.813C241.186 231.859 240.8 231.994 240.437 232.221C240.074 232.448 239.847 232.791 239.749 233.259L237.815 232.907C237.95 232.142 238.312 231.502 238.893 230.983C239.475 230.464 240.307 230.144 241.385 230.028C242.199 229.935 242.929 229.986 243.58 230.172C244.231 230.357 244.738 230.723 245.11 231.266C245.309 231.553 245.449 231.859 245.519 232.174C245.593 232.49 245.649 232.842 245.695 233.217L246.346 238.586L244.556 238.785L244.328 236.889L244.663 237.163C244.328 237.84 243.901 238.354 243.385 238.711C242.869 239.068 242.199 239.291 241.376 239.383M241.59 237.779C242.05 237.728 242.441 237.608 242.748 237.413C243.055 237.218 243.296 237 243.464 236.75C243.631 236.5 243.738 236.273 243.78 236.069C243.859 235.809 243.882 235.517 243.859 235.192C243.836 234.868 243.808 234.608 243.784 234.409L244.435 234.52C243.831 234.678 243.31 234.817 242.878 234.937C242.445 235.058 242.074 235.165 241.767 235.262C241.46 235.359 241.186 235.457 240.953 235.563C240.725 235.67 240.535 235.786 240.386 235.911C240.237 236.036 240.126 236.175 240.056 236.328C239.986 236.477 239.963 236.648 239.986 236.838C240.009 237.051 240.093 237.237 240.223 237.39C240.358 237.543 240.539 237.654 240.767 237.728C240.995 237.803 241.274 237.821 241.595 237.784" fill="white"/>
<path d="M251.293 237.793L249.28 229.203L251.07 228.818L251.693 231.484L251.935 231.433L253.325 237.357L251.293 237.793ZM257.528 236.458L256.561 232.323C256.496 232.054 256.407 231.757 256.291 231.437C256.175 231.117 256.007 230.821 255.798 230.542C255.584 230.269 255.315 230.065 254.989 229.926C254.664 229.787 254.259 229.773 253.785 229.875C253.529 229.93 253.288 230.023 253.055 230.158C252.823 230.292 252.632 230.478 252.474 230.709C252.316 230.946 252.218 231.247 252.176 231.609C252.135 231.97 252.176 232.415 252.297 232.939L250.995 232.708C250.823 231.975 250.819 231.28 250.972 230.626C251.13 229.968 251.456 229.402 251.949 228.924C252.441 228.447 253.111 228.122 253.957 227.937C254.622 227.798 255.198 227.784 255.682 227.905C256.165 228.025 256.57 228.22 256.905 228.493C257.235 228.767 257.509 229.077 257.718 229.421C257.928 229.764 258.09 230.097 258.202 230.422C258.313 230.746 258.397 231.011 258.444 231.219L259.569 236.018L257.537 236.453L257.528 236.458Z" fill="white"/>
<path d="M267.868 233.843C267.063 234.103 266.296 234.14 265.562 233.945C264.827 233.755 264.176 233.38 263.614 232.819C263.051 232.258 262.619 231.567 262.326 230.733C262.024 229.889 261.926 229.082 262.019 228.313C262.117 227.543 262.4 226.871 262.874 226.287C263.349 225.707 263.995 225.281 264.818 225.016C265.65 224.747 266.412 224.715 267.11 224.914C267.807 225.114 268.421 225.503 268.946 226.069C269.472 226.639 269.885 227.344 270.183 228.183C270.476 229.013 270.597 229.805 270.541 230.566C270.485 231.326 270.239 231.994 269.802 232.568C269.36 233.143 268.719 233.565 267.868 233.839M267.575 232.077C268.096 231.905 268.477 231.655 268.719 231.326C268.96 230.992 269.081 230.598 269.081 230.134C269.081 229.676 268.988 229.175 268.798 228.637C268.602 228.09 268.361 227.64 268.068 227.279C267.775 226.917 267.431 226.671 267.035 226.546C266.645 226.416 266.199 226.435 265.701 226.597C265.18 226.764 264.79 227.028 264.539 227.381C264.288 227.733 264.153 228.146 264.139 228.609C264.125 229.077 264.204 229.56 264.385 230.065C264.567 230.575 264.808 231.011 265.115 231.372C265.422 231.734 265.78 231.984 266.199 232.119C266.612 232.253 267.073 232.239 267.579 232.077M270.271 232.805L268.193 226.954L267.951 227.033L266.082 221.771L268.044 221.136L271.987 232.253L270.267 232.809L270.271 232.805Z" fill="white"/>
<path d="M282.146 228.058L276.566 217.325L278.408 216.453L283.987 227.181L282.146 228.058Z" fill="white"/>
<path d="M283.35 216.069L282.429 214.497L284.224 213.537L285.144 215.109L283.35 216.069ZM288.538 224.914L284.033 217.232L285.828 216.273L290.333 223.95L288.538 224.91V224.914Z" fill="white"/>
<path d="M296.884 220.121L288.989 214.571L290.7 213.477L296.34 217.557L294.554 211.025L296.27 209.926L298.604 219.026L296.884 220.121Z" fill="white"/>
<path d="M307.968 212.624C307.247 213.19 306.485 213.537 305.685 213.667C304.881 213.797 304.099 213.713 303.342 213.426C302.584 213.139 301.91 212.647 301.315 211.956C300.678 211.21 300.273 210.45 300.101 209.666C299.929 208.883 299.98 208.132 300.254 207.413C300.529 206.694 301.012 206.059 301.714 205.512C302.454 204.933 303.221 204.608 304.025 204.529C304.825 204.455 305.606 204.618 306.373 205.025C307.14 205.429 307.842 206.064 308.479 206.926L306.903 208.159L306.429 207.603C305.787 206.866 305.187 206.435 304.629 206.305C304.072 206.175 303.5 206.338 302.923 206.787C302.272 207.297 301.951 207.867 301.965 208.503C301.979 209.138 302.305 209.824 302.937 210.561C303.528 211.252 304.146 211.66 304.788 211.79C305.429 211.919 306.052 211.748 306.661 211.27C307.052 210.964 307.321 210.617 307.461 210.227C307.6 209.842 307.614 209.425 307.498 208.994L309.455 208.215C309.711 209.045 309.697 209.852 309.418 210.635C309.139 211.423 308.66 212.082 307.972 212.624M302.793 211.377L301.807 210.232L306.708 206.393L307.693 207.538L302.793 211.377Z" fill="white"/>
<path d="M314.463 206.815L305.745 198.201L307.224 196.834L315.941 205.447L314.463 206.815Z" fill="white"/>
<path d="M311.775 195.007L310.385 193.788L311.775 192.341L313.161 193.561L311.771 195.007H311.775ZM319.586 201.873L312.803 195.911L314.193 194.465L320.976 200.422L319.586 201.868V201.873Z" fill="white"/>
<path d="M324.431 196.722L314.728 189.523L315.853 188.136L320.962 191.929L321.116 191.743L325.709 195.155L324.431 196.727V196.722ZM328.355 191.901L324.849 189.3C324.621 189.128 324.352 188.957 324.049 188.781C323.747 188.605 323.422 188.475 323.073 188.391C322.724 188.308 322.38 188.317 322.036 188.41C321.692 188.503 321.371 188.734 321.074 189.105C320.916 189.305 320.79 189.523 320.697 189.764C320.609 190.009 320.581 190.269 320.618 190.547C320.655 190.825 320.776 191.117 320.986 191.423C321.195 191.729 321.52 192.045 321.967 192.378L320.809 192.995C320.191 192.536 319.721 192.003 319.405 191.4C319.089 190.797 318.963 190.162 319.028 189.495C319.093 188.827 319.391 188.164 319.921 187.515C320.339 187 320.776 186.644 321.227 186.44C321.678 186.24 322.125 186.143 322.566 186.152C323.003 186.161 323.422 186.236 323.812 186.375C324.203 186.514 324.552 186.676 324.854 186.852C325.156 187.033 325.398 187.186 325.574 187.316L329.638 190.334L328.359 191.905L328.355 191.901Z" fill="white"/>
<path d="M334.868 183.162C334.385 183.908 333.785 184.46 333.069 184.812C332.353 185.165 331.586 185.313 330.768 185.253C329.945 185.192 329.131 184.924 328.322 184.451C327.499 183.964 326.881 183.384 326.462 182.703C326.044 182.026 325.844 181.298 325.858 180.533C325.872 179.768 326.114 179.017 326.588 178.285C327.076 177.529 327.676 176.977 328.392 176.63C329.108 176.277 329.875 176.129 330.698 176.189C331.521 176.245 332.334 176.514 333.143 176.987C333.957 177.464 334.571 178.044 334.994 178.725C335.417 179.402 335.621 180.125 335.608 180.895C335.598 181.66 335.352 182.42 334.864 183.166M333.227 182.193C333.655 181.525 333.743 180.895 333.487 180.297C333.232 179.699 332.734 179.184 332 178.748C331.237 178.299 330.526 178.109 329.861 178.169C329.196 178.229 328.652 178.591 328.229 179.249C327.941 179.699 327.806 180.13 327.829 180.542C327.853 180.955 328.006 181.344 328.294 181.701C328.578 182.058 328.968 182.388 329.461 182.675C330.224 183.125 330.935 183.315 331.6 183.25C332.265 183.185 332.809 182.833 333.222 182.188" fill="white"/>
<path d="M341.298 171.905C340.903 172.698 340.368 173.306 339.694 173.727C339.025 174.149 338.276 174.372 337.453 174.395C336.63 174.418 335.794 174.237 334.933 173.843C334.059 173.445 333.381 172.93 332.888 172.295C332.4 171.66 332.116 170.964 332.046 170.199C331.972 169.439 332.135 168.669 332.525 167.886C332.925 167.089 333.46 166.477 334.134 166.055C334.803 165.633 335.552 165.41 336.375 165.382C337.198 165.355 338.039 165.54 338.895 165.93C339.755 166.324 340.433 166.838 340.926 167.469C341.419 168.099 341.703 168.799 341.777 169.56C341.852 170.325 341.689 171.103 341.294 171.896M339.559 171.113C339.913 170.408 339.931 169.768 339.611 169.203C339.29 168.632 338.741 168.173 337.96 167.816C337.156 167.45 336.426 167.33 335.77 167.455C335.115 167.585 334.617 167.997 334.269 168.693C334.031 169.166 333.948 169.611 334.017 170.019C334.087 170.427 334.282 170.797 334.608 171.122C334.933 171.451 335.356 171.734 335.877 171.975C336.682 172.346 337.411 172.462 338.067 172.332C338.723 172.202 339.22 171.794 339.559 171.113Z" fill="white"/>
<path d="M346.942 157.969L340.847 155.906L340.764 156.138L335.277 154.284L335.97 152.415L347.552 156.333L346.947 157.969H346.942ZM346.306 160.417C346.022 161.178 345.576 161.776 344.962 162.211C344.348 162.643 343.642 162.902 342.833 162.976C342.024 163.055 341.187 162.949 340.317 162.656C339.439 162.36 338.713 161.938 338.141 161.386C337.57 160.839 337.188 160.209 337.007 159.495C336.821 158.781 336.872 158.034 337.165 157.246C337.458 156.458 337.904 155.865 338.499 155.461C339.095 155.063 339.792 154.84 340.587 154.798C341.382 154.757 342.214 154.882 343.088 155.178C343.953 155.471 344.678 155.874 345.269 156.384C345.859 156.894 346.254 157.492 346.454 158.178C346.654 158.864 346.603 159.611 346.301 160.417M344.678 159.546C344.864 159.05 344.892 158.609 344.767 158.224C344.641 157.84 344.39 157.506 344.013 157.218C343.637 156.936 343.167 156.694 342.605 156.504C342.038 156.31 341.512 156.212 341.033 156.212C340.554 156.212 340.141 156.314 339.792 156.532C339.443 156.75 339.183 157.093 339.006 157.561C338.82 158.057 338.797 158.512 338.932 158.92C339.067 159.328 339.322 159.685 339.699 159.981C340.076 160.283 340.522 160.519 341.047 160.7C341.577 160.881 342.089 160.969 342.577 160.96C343.065 160.955 343.493 160.839 343.86 160.612C344.227 160.385 344.502 160.028 344.683 159.55" fill="white"/>
<path d="M350.09 148.345C349.82 149.402 349.351 150.199 348.686 150.746C348.021 151.289 347.217 151.53 346.282 151.46L346.464 149.439C346.933 149.439 347.338 149.3 347.677 149.017C348.016 148.734 348.258 148.331 348.388 147.807C348.505 147.348 348.5 146.973 348.374 146.676C348.249 146.379 348.016 146.194 347.686 146.115C347.482 146.069 347.305 146.073 347.156 146.138C347.008 146.203 346.836 146.375 346.64 146.657C346.445 146.94 346.175 147.385 345.836 147.988C345.455 148.66 345.092 149.179 344.757 149.55C344.418 149.921 344.069 150.158 343.707 150.269C343.344 150.38 342.939 150.385 342.493 150.278C341.935 150.148 341.484 149.893 341.14 149.518C340.796 149.142 340.578 148.674 340.485 148.122C340.387 147.566 340.429 146.949 340.606 146.268C340.778 145.605 341.033 145.039 341.382 144.576C341.726 144.112 342.14 143.769 342.619 143.542C343.098 143.319 343.614 143.231 344.172 143.282L344.037 145.313C343.641 145.271 343.302 145.369 343.005 145.6C342.712 145.832 342.493 146.18 342.344 146.639C342.2 147.079 342.182 147.459 342.279 147.775C342.377 148.09 342.577 148.28 342.884 148.35C343.056 148.391 343.214 148.368 343.363 148.285C343.511 148.201 343.693 148.007 343.897 147.701C344.102 147.395 344.381 146.926 344.729 146.305C345.087 145.665 345.436 145.174 345.771 144.817C346.11 144.465 346.468 144.233 346.84 144.126C347.212 144.02 347.631 144.02 348.095 144.126C348.997 144.335 349.625 144.812 349.978 145.559C350.332 146.305 350.369 147.228 350.085 148.331" fill="white"/>
</g>
<defs>
<linearGradient id="paint0_linear_1216_5207" x1="227.153" y1="0.202782" x2="227.153" y2="69.4749" gradientUnits="userSpaceOnUse">
<stop stop-color="#D62828"/>
<stop offset="0.13" stop-color="#D62828"/>
<stop offset="0.54" stop-color="#F77F00"/>
<stop offset="0.55" stop-color="#F68000"/>
<stop offset="0.69" stop-color="#F59600"/>
<stop offset="0.84" stop-color="#F4A300"/>
<stop offset="0.97" stop-color="#F4A800"/>
<stop offset="1" stop-color="#F4A800"/>
</linearGradient>
<clipPath id="clip0_1216_5207">
<rect width="457" height="240" fill="white"/>
</clipPath>
</defs>
</svg>
