<svg width="245" height="129" viewBox="0 0 245 129" fill="none" xmlns="http://www.w3.org/2000/svg">
<g clip-path="url(#clip0_1216_1576)">
<path d="M0 60.0596C0 55.8533 0 51.6843 0.107177 47.478H22.4001V52.0432C18.4445 52.1503 14.8852 52.1503 10.5333 52.1503H5.46355V59.8801H5.57073C6.21878 58.5146 7.26064 57.9739 8.91566 57.9739H10.2093C14.4515 57.9739 17.3652 57.9739 21.3208 58.0461V62.5764C17.3652 62.6486 14.272 62.6486 10.0672 62.6486H5.46355V72.6411H0.107177C0 68.4348 0 64.2659 0 60.0596Z" fill="black"/>
<path d="M26.5002 60.0596C26.5002 55.8533 26.5002 51.6843 26.6074 47.478H31.894C31.9663 51.6843 31.9663 55.8533 31.9663 60.0596C31.9663 64.2659 31.9663 68.4348 31.894 72.6411H26.6074C26.5002 68.4348 26.5002 64.2659 26.5002 60.0596Z" fill="black"/>
<path d="M36.9263 60.0596C36.9263 55.8533 36.9263 51.6843 37.0335 47.478H62.9231C63.0303 49.3843 63.0303 50.5705 63.0303 54.7768C63.0652 58.228 61.0886 60.2041 59.3987 60.8171C61.9884 61.8961 63.2471 63.6927 63.2471 66.3541C63.2471 68.3301 63.2471 70.6675 63.2122 72.6461H57.8185V67.4331C57.8185 65.6364 56.9561 64.1612 54.5458 64.1612H42.3924V72.6461H37.036C36.9288 68.4398 36.9288 64.2709 36.9288 60.0645M42.4996 61.2457C43.1102 60.1318 44.01 59.5911 45.5928 59.5911H53.9351C56.7392 59.5911 57.5318 57.7571 57.5318 55.8881V52.1129H42.3949V61.2432H42.5021L42.4996 61.2457Z" fill="black"/>
<path d="M67.8483 60.0596C67.8483 55.8533 67.8483 51.6843 67.9554 47.478H90.5001V51.8289C86.5445 51.936 83.1995 51.936 78.5984 51.936H73.3118V59.5213H73.419C74.067 58.1558 74.9643 57.6873 76.5845 57.6873H78.5984C82.878 57.6873 86.0061 57.6873 89.6726 57.7596V61.9285C86.0036 62.0007 82.8755 62.0007 78.5984 62.0007H73.3118V67.9688H78.7405C83.3067 67.9688 86.6517 67.9688 90.6421 68.076V72.6411H67.9529C67.8458 68.4348 67.8458 64.2659 67.8458 60.0596" fill="black"/>
<path d="M114.194 47.478H119.229C123.58 55.2079 128.83 64.3381 133.324 72.6411H127.14L124.587 67.7171H108.837L106.248 72.6411H100.064C104.523 64.6247 109.627 55.5293 114.196 47.478M116.928 52.9054H116.497L110.637 64.2285L110.744 64.2634C111.534 63.4735 112.289 63.1495 113.586 63.1495H122.142L116.928 52.9054Z" fill="black"/>
<path d="M135.911 60.0596C135.911 55.8533 135.911 51.6843 136.018 47.478H141.374V69.8377H141.482C142.092 68.2928 142.992 67.8965 144.575 67.8965H148.53C152.055 67.8965 154.896 67.8965 158.67 68.0037V72.6411H136.016C135.908 68.4348 135.908 64.2659 135.908 60.0596" fill="black"/>
<path d="M162.588 60.0596C162.588 55.8533 162.588 51.6843 162.695 47.478H185.24V51.8289C181.284 51.936 177.939 51.936 173.338 51.936H168.052V59.5213H168.159C168.807 58.1558 169.704 57.6873 171.324 57.6873H173.338C177.618 57.6873 180.746 57.6873 184.412 57.7596V61.9285C180.743 62.0007 177.615 62.0007 173.338 62.0007H168.052V67.9688H173.48C178.047 67.9688 181.391 67.9688 185.382 68.076V72.6411H162.693C162.586 68.4348 162.586 64.2659 162.586 60.0596" fill="black"/>
<path d="M189.699 60.0596C189.699 55.8533 189.699 51.6843 189.806 47.478H215.696C215.803 49.3843 215.803 50.5705 215.803 54.7768C215.838 58.228 213.861 60.2041 212.171 60.8171C214.761 61.8961 216.02 63.6927 216.02 66.3541C216.02 68.3301 216.02 70.6675 215.982 72.6461H210.589V67.4331C210.589 65.6364 209.726 64.1612 207.316 64.1612H195.163V72.6461H189.806C189.699 68.4398 189.699 64.2709 189.699 60.0645M195.272 61.2457C195.883 60.1318 196.783 59.5911 198.365 59.5911H206.708C209.512 59.5911 210.304 57.7571 210.304 55.8881V52.1129H195.168V61.2432H195.275L195.272 61.2457Z" fill="black"/>
<path d="M229.394 60.3112C229.394 57.2562 229.394 54.9911 229.429 52.1154C226.015 52.1154 222.921 52.1154 219.325 52.0083V47.478H244.997V52.0083C241.152 52.1154 238.021 52.1154 234.713 52.1154H233.382V52.2226C234.462 52.7982 234.893 53.6604 234.893 54.8465V60.3112C234.893 64.5175 234.893 68.4348 234.748 72.6411H229.534C229.389 68.4348 229.389 64.5175 229.389 60.3112" fill="black"/>
<path d="M149.859 76.0974C144.338 85.4719 134.144 91.7813 122.499 91.7813C110.854 91.7813 100.659 85.4719 95.1386 76.0974H91.0011C96.8584 87.5501 108.775 95.412 122.499 95.412C136.222 95.412 148.139 87.5501 153.996 76.0974H149.859Z" fill="#F4A800"/>
<path d="M175.778 44.7868H179.545C173.366 21.7393 153.55 4.21387 129.311 1.41797C129.717 2.74365 130.41 4.04691 131.407 5.37259C152.678 8.82386 169.926 24.4181 175.778 44.7868Z" fill="#D62828"/>
<path d="M118.012 4.83437C118.451 3.6906 118.964 2.62158 119.565 1.60738C119.672 1.42547 119.787 1.25353 119.899 1.0791C93.7677 2.21789 71.9908 20.4161 65.4555 44.7843H69.2216C75.4728 23.0202 94.7348 6.70578 118.012 4.83188" fill="#D62828"/>
<path d="M122.499 115.467C97.5165 115.467 76.3452 98.8533 69.4484 76.0974H65.6623C72.6687 100.882 95.495 119.095 122.499 119.095C149.502 119.095 172.329 100.882 179.335 76.0974H175.549C168.652 98.8533 147.481 115.467 122.499 115.467Z" fill="#D62828"/>
<path d="M76.3951 44.7868H80.2385C84.563 32.8606 93.8051 23.2718 105.5 18.4774C105.998 16.8403 106.731 15.2704 107.666 13.8301C92.9477 18.5622 81.2654 30.1345 76.3951 44.7893" fill="#F77F00"/>
<path d="M164.762 44.7867H168.605C163.784 30.2765 152.287 18.7839 137.773 13.9646C138.58 15.4273 139.196 16.9499 139.615 18.5198C151.257 23.3316 160.452 32.898 164.764 44.7867" fill="#F77F00"/>
<path d="M122.499 104.986C103.369 104.986 86.9981 92.9724 80.5251 76.0999H76.6567C83.2968 95.0158 101.337 108.616 122.499 108.616C143.66 108.616 161.698 95.0158 168.341 76.0999H164.472C157.999 92.9749 141.626 104.986 122.499 104.986Z" fill="#F77F00"/>
<path d="M90.6122 44.7867H94.6999C97.5638 39.5961 101.838 35.2901 107.005 32.3871C106.437 31.3405 105.964 30.2192 105.592 29.0181C99.0967 32.569 93.8301 38.096 90.6122 44.7867Z" fill="#F4A800"/>
<path d="M150.3 44.7868H154.388C151.175 38.111 145.928 32.594 139.453 29.0405C139.079 30.2067 138.588 31.3281 137.992 32.3821C143.159 35.2852 147.436 39.5937 150.3 44.7843" fill="#F4A800"/>
<mask id="mask0_1216_1576" style="mask-type:luminance" maskUnits="userSpaceOnUse" x="108" y="0" width="29" height="38">
<path d="M121.798 4.19634C120.208 6.8801 119.498 9.83299 119.146 12.898C118.979 14.3632 118.987 15.8359 118.984 17.4332C116.337 16.0627 115.624 13.7477 115.48 11.069C115.273 11.1811 115.146 11.2434 115.026 11.3182C110.35 14.2511 107.701 20.0173 108.72 25.5144C109.807 31.3803 113.331 35.1456 119.074 36.8027C119.72 36.9896 120.39 37.0942 121.048 37.2363H123.962C124.144 37.0793 124.373 37.1142 124.585 37.0843C131.247 36.1324 136.379 30.2814 136.494 23.5583C136.559 19.7407 135.368 16.3518 133.094 13.3291C131.723 11.505 130.26 9.75574 128.88 7.93915C127.573 6.22224 126.594 4.33339 126.208 2.18538C126.08 1.48516 126.031 0.772485 125.936 0C124.131 1.05407 122.813 2.48192 121.798 4.19634Z" fill="white"/>
</mask>
<g mask="url(#mask0_1216_1576)">
<path d="M136.556 0H107.701V37.2338H136.556V0Z" fill="url(#paint0_linear_1216_1576)"/>
</g>
<path d="M56.7915 79.2046L63.1474 77.5525L63.8603 80.0693C63.8777 80.1291 63.8977 80.2039 63.9176 80.2985C63.94 80.3932 63.955 80.4805 63.9625 80.5652C64.0073 80.9315 63.9674 81.2554 63.8428 81.5345C63.7207 81.8136 63.5313 82.0454 63.2745 82.2323C63.0178 82.4191 62.7162 82.5562 62.3648 82.6484C62.0183 82.7381 61.6843 82.7655 61.3653 82.7256C61.0462 82.6883 60.7596 82.5786 60.5079 82.3967C60.2536 82.2148 60.0517 81.9581 59.8947 81.6217C59.8598 81.547 59.8274 81.4623 59.795 81.3701C59.7626 81.2779 59.7377 81.2031 59.7227 81.1458L59.299 79.6482L57.0782 80.2263L56.789 79.2071L56.7915 79.2046ZM60.296 79.389L60.7073 80.8443C60.7222 80.9016 60.7446 80.9639 60.7696 81.0337C60.7945 81.1034 60.8244 81.1632 60.8593 81.2181C60.9515 81.375 61.0662 81.4872 61.2058 81.557C61.3453 81.6242 61.4924 81.6616 61.6444 81.6641C61.7965 81.6691 61.941 81.6516 62.0756 81.6168C62.2102 81.5819 62.3448 81.5246 62.4744 81.4473C62.6065 81.3701 62.7137 81.2679 62.796 81.1408C62.8782 81.0137 62.9206 80.8617 62.9156 80.6798C62.9156 80.6175 62.9081 80.5477 62.8932 80.478C62.8782 80.4057 62.8633 80.3434 62.8458 80.2861L62.4346 78.8308L60.2885 79.389H60.296Z" fill="black"/>
<path d="M58.8778 85.9176L63.5063 84.2605L63.8478 85.1351L62.7212 85.5388L62.8259 85.3794C63.0004 85.3794 63.1698 85.4018 63.3343 85.4491C63.4964 85.494 63.6459 85.5687 63.778 85.6659C63.8977 85.7482 64.0048 85.8478 64.102 85.9649C64.1967 86.0821 64.279 86.2092 64.3413 86.3437C64.4061 86.4808 64.4535 86.6178 64.4809 86.7574L63.5163 87.1037C63.5063 86.9592 63.459 86.8022 63.3792 86.6353C63.2995 86.4708 63.1873 86.3337 63.0502 86.2266C62.9181 86.117 62.7785 86.0422 62.624 85.9973C62.4695 85.9525 62.3099 85.94 62.1404 85.9525C61.971 85.9649 61.799 86.0048 61.622 86.0671L59.2691 86.9094L58.8827 85.9151L58.8778 85.9176Z" fill="black"/>
<path d="M61.5397 92.3716C61.3204 91.948 61.2282 91.5294 61.2631 91.1182C61.298 90.7071 61.445 90.3308 61.7067 89.9894C61.9685 89.648 62.3249 89.3689 62.781 89.1521C63.2446 88.9303 63.6982 88.8257 64.1394 88.8382C64.5806 88.8506 64.9819 88.9677 65.3433 89.1895C65.7047 89.4113 65.9913 89.7327 66.2082 90.1489C66.43 90.575 66.5222 90.9936 66.4873 91.4048C66.4525 91.816 66.3054 92.1922 66.0437 92.5336C65.7845 92.875 65.4255 93.1566 64.9694 93.3734C64.5108 93.5927 64.0597 93.6948 63.6185 93.6874C63.1748 93.6774 62.7735 93.5603 62.4121 93.3385C62.0507 93.1167 61.7591 92.7928 61.5397 92.3692M62.4645 91.9306C62.6589 92.3069 62.9355 92.5237 63.2945 92.5835C63.6509 92.6408 64.0372 92.571 64.4535 92.3741C64.8822 92.1698 65.1763 91.9156 65.3358 91.6066C65.4953 91.2976 65.4779 90.9587 65.286 90.5875C65.1539 90.3333 64.9869 90.1539 64.7825 90.0467C64.5781 89.9396 64.3513 89.8972 64.0995 89.9196C63.8478 89.9421 63.5811 90.0193 63.3019 90.1514C62.8732 90.3557 62.5791 90.6124 62.4221 90.9214C62.2626 91.2304 62.28 91.5668 62.467 91.9306" fill="black"/>
<path d="M65.3956 98.8406C65.1763 98.6014 64.9894 98.3522 64.8348 98.0906C64.6803 97.8289 64.5881 97.5723 64.5532 97.3156C64.5183 97.0589 64.5706 96.8197 64.7077 96.6004C64.8323 96.4036 64.9894 96.2466 65.1763 96.132C65.3657 96.0173 65.5801 95.8927 65.8194 95.7532L69.5083 93.6451L70.0716 94.5471L66.4375 96.6229C66.268 96.7201 66.1185 96.8073 65.9913 96.8845C65.8642 96.9618 65.777 97.0465 65.7246 97.1412C65.6225 97.3206 65.6249 97.515 65.7296 97.7243C65.8343 97.9336 65.9864 98.1529 66.1833 98.3846L65.3907 98.8382L65.3956 98.8406ZM67.1304 94.0064L67.8732 93.5828L69.6379 96.416L68.8951 96.8397L67.1304 94.0064Z" fill="black"/>
<path d="M67.8258 102.489C67.5317 102.1 67.3622 101.699 67.3174 101.283C67.27 100.867 67.3423 100.47 67.5292 100.089C67.7162 99.7104 68.0128 99.3789 68.4165 99.0974C68.8527 98.7934 69.2939 98.6114 69.7376 98.5492C70.1812 98.4869 70.6 98.5367 70.9938 98.6987C71.3876 98.8631 71.7266 99.1322 72.0107 99.5085C72.3098 99.9072 72.4693 100.311 72.4843 100.725C72.4993 101.138 72.3821 101.534 72.1304 101.913C71.8786 102.294 71.4998 102.633 70.9963 102.932L70.3557 102.085L70.6822 101.858C71.1159 101.554 71.3776 101.263 71.4674 100.979C71.5596 100.695 71.4873 100.398 71.253 100.089C70.9888 99.7378 70.6797 99.5559 70.3233 99.5434C69.9694 99.531 69.5731 99.673 69.1394 99.9745C68.7331 100.256 68.4838 100.558 68.3916 100.882C68.2994 101.205 68.3742 101.532 68.6209 101.858C68.7804 102.07 68.9674 102.217 69.1792 102.302C69.3911 102.387 69.6229 102.407 69.8697 102.362L70.2411 103.391C69.77 103.493 69.3188 103.463 68.8876 103.294C68.4564 103.127 68.1 102.858 67.8233 102.489M68.6932 99.8748L69.3662 99.4088L71.3577 102.045L70.6847 102.514L68.6932 99.8748Z" fill="black"/>
<path d="M72.1777 107.642C71.8387 107.278 71.6344 106.894 71.5621 106.493C71.4923 106.092 71.5396 105.696 71.7066 105.31C71.8736 104.923 72.1403 104.569 72.5092 104.248C72.8881 103.927 73.2894 103.712 73.7131 103.603C74.1368 103.493 74.5506 103.495 74.9618 103.613C75.3706 103.727 75.742 103.966 76.076 104.323C76.4499 104.724 76.6617 105.153 76.7091 105.611C76.7589 106.07 76.6393 106.496 76.3552 106.892L75.403 106.299C75.5426 106.07 75.6024 105.835 75.58 105.599C75.5576 105.362 75.4628 105.155 75.2958 104.973C75.1039 104.769 74.897 104.644 74.6702 104.597C74.4459 104.552 74.2141 104.572 73.9798 104.662C73.743 104.751 73.5137 104.891 73.2869 105.085C72.9379 105.384 72.7236 105.703 72.6488 106.037C72.574 106.374 72.6737 106.688 72.9504 106.984C73.1448 107.193 73.3492 107.315 73.5611 107.35C73.7729 107.385 74.0022 107.35 74.249 107.251L74.8098 108.215C74.3337 108.427 73.8676 108.484 73.4115 108.385C72.9554 108.285 72.5441 108.038 72.1777 107.644" fill="black"/>
<path d="M77.5665 112.618C77.2849 112.449 77.0331 112.257 76.8113 112.048C76.587 111.838 76.4225 111.614 76.3153 111.377C76.2081 111.141 76.1882 110.899 76.2555 110.65C76.3178 110.425 76.4225 110.233 76.572 110.074C76.7191 109.915 76.8886 109.735 77.0805 109.541L80.0092 106.531L80.8117 107.248L77.9279 110.214C77.7933 110.353 77.6762 110.475 77.5765 110.582C77.4768 110.689 77.417 110.797 77.3945 110.899C77.3497 111.101 77.4095 111.285 77.5715 111.457C77.7335 111.629 77.9429 111.801 78.1996 111.968L77.569 112.616L77.5665 112.618ZM77.8232 107.512L78.4115 106.907L80.9314 109.157L80.3432 109.762L77.8232 107.512Z" fill="black"/>
<path d="M79.4982 114.183L82.6088 110.505L83.4663 111.17L80.3581 114.848L79.5007 114.183H79.4982ZM83.0799 109.947L83.7155 109.194L84.5729 109.86L83.9373 110.612L83.0799 109.947Z" fill="black"/>
<path d="M82.559 116.498L85.3381 112.586L86.1507 113.114L85.2883 114.328L85.3979 114.4L83.4812 117.099L82.559 116.498ZM85.3904 118.345L86.7289 116.461C86.8162 116.339 86.9034 116.194 86.9931 116.035C87.0804 115.873 87.1427 115.703 87.1776 115.521C87.2125 115.342 87.1975 115.165 87.1327 114.993C87.0679 114.821 86.9283 114.664 86.7115 114.522C86.5943 114.447 86.4672 114.39 86.3276 114.353C86.188 114.315 86.041 114.31 85.8865 114.338C85.7319 114.365 85.5724 114.437 85.4079 114.557C85.2434 114.674 85.0764 114.854 84.9069 115.09L84.5231 114.517C84.7598 114.183 85.0415 113.927 85.368 113.745C85.6945 113.563 86.046 113.476 86.4223 113.486C86.7987 113.495 87.1776 113.625 87.5614 113.877C87.863 114.074 88.0799 114.285 88.207 114.51C88.3341 114.734 88.4039 114.961 88.4138 115.185C88.4238 115.409 88.3964 115.626 88.3316 115.83C88.2668 116.035 88.1895 116.219 88.0998 116.381C88.0101 116.543 87.9303 116.67 87.863 116.765L86.3102 118.95L85.388 118.347L85.3904 118.345Z" fill="black"/>
<path d="M89.366 123.191C89.1242 123.067 88.9123 122.912 88.7304 122.728C88.5484 122.541 88.4064 122.337 88.3042 122.11C88.202 121.883 88.1472 121.646 88.1422 121.397L89.2738 121.43C89.2738 121.624 89.3286 121.798 89.4383 121.948C89.5504 122.1 89.69 122.22 89.8645 122.307C90.0664 122.411 90.2658 122.469 90.4627 122.481C90.6596 122.494 90.839 122.456 91.0011 122.369C91.1631 122.282 91.2952 122.137 91.4023 121.935L92.0629 120.749L92.185 120.812L93.9547 117.639L94.8046 118.076L92.3645 122.451C92.3046 122.556 92.2448 122.656 92.1825 122.748C92.1202 122.84 92.0504 122.927 91.9781 123.009C91.7638 123.246 91.5145 123.406 91.2354 123.485C90.9562 123.565 90.6571 123.58 90.3381 123.525C90.0215 123.473 89.6975 123.361 89.3685 123.194M90.3156 121.293C89.9143 121.088 89.6177 120.812 89.4283 120.465C89.2364 120.119 89.1516 119.738 89.1741 119.321C89.194 118.905 89.3236 118.487 89.5554 118.071C89.7922 117.647 90.0838 117.313 90.4353 117.066C90.7842 116.82 91.1656 116.678 91.5768 116.643C91.9881 116.605 92.3993 116.693 92.8106 116.904C93.2244 117.116 93.5185 117.39 93.693 117.727C93.8674 118.063 93.9347 118.434 93.8924 118.841C93.8525 119.247 93.7154 119.66 93.4811 120.081C93.2493 120.495 92.9676 120.834 92.6361 121.093C92.3046 121.352 91.9407 121.504 91.5469 121.552C91.1506 121.597 90.7418 121.512 90.3156 121.295M90.9313 120.535C91.1905 120.67 91.4348 120.719 91.6566 120.687C91.8809 120.655 92.0878 120.555 92.2747 120.385C92.4642 120.219 92.6336 119.997 92.7832 119.728C92.9352 119.454 93.0324 119.197 93.0723 118.953C93.1122 118.708 93.0873 118.492 92.9951 118.297C92.9028 118.103 92.7333 117.941 92.4866 117.816C92.2249 117.684 91.9756 117.634 91.7388 117.669C91.5021 117.704 91.2827 117.806 91.0883 117.971C90.8914 118.138 90.7244 118.347 90.5823 118.599C90.4403 118.853 90.3505 119.105 90.3131 119.354C90.2757 119.603 90.3081 119.827 90.4029 120.034C90.5001 120.238 90.6745 120.405 90.9263 120.535" fill="black"/>
<path d="M97.8928 124.499L100.281 118.477L101.31 118.853L98.9247 124.873L97.8928 124.499Z" fill="black"/>
<path d="M101.559 125.751L103.045 121.238L104.097 121.554L102.611 126.067L101.559 125.751ZM103.269 120.55L103.573 119.625L104.625 119.942L104.321 120.866L103.269 120.55Z" fill="black"/>
<path d="M106.577 127.104L105.946 122.107L107.02 122.347L107.424 125.957L109.441 122.882L110.52 123.124L107.656 127.345L106.577 127.104Z" fill="black"/>
<path d="M113.713 128.497C113.217 128.434 112.795 128.277 112.449 128.023C112.103 127.771 111.848 127.448 111.689 127.056C111.529 126.665 111.482 126.231 111.547 125.758C111.617 125.245 111.781 124.814 112.038 124.46C112.294 124.108 112.621 123.849 113.015 123.687C113.409 123.525 113.847 123.473 114.328 123.533C114.837 123.598 115.253 123.765 115.577 124.036C115.901 124.308 116.12 124.662 116.238 125.098C116.352 125.534 116.352 126.03 116.233 126.585L115.148 126.448L115.201 126.067C115.268 125.556 115.223 125.172 115.071 124.916C114.919 124.659 114.645 124.505 114.249 124.455C113.8 124.397 113.451 124.49 113.197 124.726C112.943 124.963 112.781 125.337 112.711 125.848C112.646 126.324 112.706 126.705 112.888 126.991C113.07 127.281 113.369 127.45 113.787 127.502C114.057 127.537 114.296 127.507 114.508 127.418C114.72 127.328 114.892 127.181 115.026 126.977L116.063 127.425C115.819 127.824 115.482 128.118 115.061 128.302C114.637 128.489 114.189 128.551 113.718 128.492M112.324 126.099L112.432 125.309L115.801 125.733L115.694 126.523L112.324 126.099Z" fill="black"/>
<path d="M120.36 128.997C119.75 128.98 119.259 128.835 118.887 128.561C118.513 128.287 118.294 127.911 118.227 127.435L119.356 127.3C119.406 127.535 119.53 127.724 119.722 127.864C119.917 128.003 120.163 128.078 120.465 128.085C120.732 128.093 120.936 128.048 121.086 127.951C121.233 127.854 121.31 127.719 121.315 127.545C121.317 127.437 121.295 127.348 121.243 127.28C121.19 127.213 121.078 127.146 120.899 127.081C120.722 127.014 120.447 126.929 120.079 126.824C119.667 126.707 119.341 126.585 119.101 126.456C118.862 126.329 118.69 126.179 118.588 126.01C118.486 125.84 118.441 125.638 118.446 125.402C118.456 125.107 118.543 124.851 118.713 124.637C118.88 124.422 119.111 124.26 119.406 124.151C119.7 124.041 120.041 123.991 120.435 124.004C120.819 124.016 121.158 124.081 121.452 124.203C121.746 124.325 121.98 124.494 122.157 124.711C122.334 124.926 122.439 125.177 122.471 125.461L121.34 125.621C121.32 125.419 121.228 125.257 121.068 125.135C120.909 125.013 120.694 124.941 120.423 124.918C120.163 124.896 119.954 124.928 119.792 125.013C119.63 125.098 119.548 125.22 119.543 125.379C119.543 125.469 119.57 125.549 119.632 125.613C119.695 125.681 119.822 125.748 120.014 125.818C120.206 125.887 120.492 125.975 120.874 126.079C121.265 126.186 121.577 126.306 121.808 126.438C122.04 126.57 122.207 126.722 122.307 126.897C122.407 127.071 122.451 127.283 122.444 127.527C122.429 128.003 122.237 128.372 121.866 128.634C121.497 128.895 120.993 129.015 120.355 128.997" fill="black"/>
<path d="M129.4 128.666C129.047 128.706 128.737 128.673 128.478 128.571C128.217 128.469 128.01 128.32 127.86 128.118C127.708 127.916 127.616 127.687 127.586 127.43C127.559 127.203 127.573 126.996 127.631 126.804C127.688 126.615 127.79 126.443 127.937 126.294C128.084 126.144 128.284 126.012 128.533 125.897C128.723 125.815 128.947 125.735 129.206 125.656C129.465 125.576 129.747 125.499 130.054 125.424C130.36 125.347 130.679 125.267 131.011 125.18L130.647 125.436C130.612 125.112 130.505 124.881 130.333 124.744C130.161 124.607 129.891 124.559 129.523 124.599C129.301 124.624 129.094 124.696 128.899 124.818C128.705 124.941 128.583 125.125 128.531 125.377L127.494 125.187C127.566 124.776 127.76 124.432 128.072 124.153C128.384 123.874 128.83 123.702 129.408 123.64C129.844 123.59 130.235 123.617 130.584 123.717C130.933 123.817 131.205 124.014 131.404 124.305C131.512 124.46 131.586 124.624 131.624 124.794C131.664 124.963 131.694 125.152 131.718 125.354L132.067 128.24L131.108 128.347L130.986 127.328L131.165 127.475C130.986 127.839 130.756 128.115 130.48 128.307C130.203 128.499 129.844 128.619 129.403 128.668M129.518 127.806C129.764 127.779 129.974 127.714 130.138 127.609C130.303 127.505 130.432 127.388 130.522 127.253C130.612 127.118 130.669 126.996 130.692 126.887C130.734 126.747 130.746 126.59 130.734 126.416C130.721 126.241 130.707 126.102 130.694 125.995L131.043 126.054C130.719 126.139 130.44 126.214 130.208 126.279C129.976 126.343 129.777 126.401 129.612 126.453C129.448 126.505 129.301 126.558 129.176 126.615C129.054 126.672 128.952 126.735 128.872 126.802C128.792 126.869 128.732 126.944 128.695 127.026C128.658 127.106 128.645 127.198 128.658 127.3C128.67 127.415 128.715 127.515 128.785 127.597C128.857 127.679 128.954 127.739 129.076 127.779C129.199 127.819 129.348 127.829 129.52 127.809" fill="black"/>
<path d="M134.719 127.814L133.64 123.196L134.6 122.99L134.934 124.422L135.063 124.395L135.809 127.58L134.719 127.814ZM138.062 127.096L137.543 124.873C137.509 124.729 137.461 124.569 137.399 124.397C137.337 124.225 137.247 124.066 137.135 123.916C137.02 123.769 136.875 123.66 136.701 123.585C136.527 123.51 136.31 123.503 136.055 123.558C135.918 123.588 135.789 123.637 135.664 123.71C135.539 123.782 135.437 123.882 135.353 124.006C135.268 124.133 135.215 124.295 135.193 124.49C135.171 124.684 135.193 124.923 135.258 125.205L134.56 125.08C134.468 124.686 134.465 124.313 134.547 123.961C134.632 123.608 134.807 123.303 135.071 123.047C135.335 122.79 135.694 122.616 136.148 122.516C136.504 122.441 136.813 122.434 137.072 122.499C137.332 122.563 137.548 122.668 137.728 122.815C137.905 122.962 138.052 123.129 138.164 123.313C138.276 123.498 138.363 123.677 138.423 123.852C138.483 124.026 138.528 124.168 138.553 124.28L139.156 126.859L138.067 127.094L138.062 127.096Z" fill="black"/>
<path d="M143.605 125.691C143.174 125.83 142.763 125.85 142.369 125.745C141.975 125.643 141.626 125.441 141.325 125.14C141.023 124.838 140.791 124.467 140.634 124.019C140.472 123.565 140.42 123.131 140.47 122.718C140.522 122.304 140.674 121.943 140.928 121.629C141.183 121.317 141.529 121.088 141.97 120.946C142.416 120.802 142.825 120.784 143.199 120.891C143.573 120.998 143.902 121.208 144.183 121.512C144.465 121.818 144.687 122.197 144.846 122.648C145.004 123.094 145.068 123.52 145.038 123.929C145.009 124.338 144.876 124.696 144.642 125.005C144.405 125.314 144.061 125.541 143.605 125.688M143.448 124.741C143.727 124.649 143.932 124.514 144.061 124.338C144.191 124.158 144.256 123.946 144.256 123.697C144.256 123.45 144.206 123.181 144.104 122.892C143.999 122.598 143.869 122.356 143.712 122.162C143.555 121.968 143.371 121.836 143.159 121.768C142.95 121.699 142.71 121.709 142.444 121.796C142.165 121.886 141.955 122.028 141.821 122.217C141.686 122.406 141.614 122.628 141.606 122.877C141.599 123.129 141.641 123.388 141.738 123.66C141.836 123.934 141.965 124.168 142.13 124.362C142.294 124.557 142.486 124.691 142.71 124.764C142.932 124.836 143.179 124.828 143.451 124.741M144.894 125.132L143.78 121.988L143.65 122.03L142.648 119.202L143.7 118.86L145.814 124.836L144.891 125.135L144.894 125.132Z" fill="black"/>
<path d="M151.26 122.581L148.269 116.812L149.256 116.344L152.247 122.11L151.26 122.581Z" fill="black"/>
<path d="M151.905 116.137L151.412 115.292L152.374 114.776L152.867 115.621L151.905 116.137ZM154.687 120.891L152.272 116.762L153.234 116.246L155.649 120.373L154.687 120.889V120.891Z" fill="black"/>
<path d="M159.161 118.315L154.929 115.332L155.846 114.744L158.869 116.937L157.912 113.426L158.832 112.835L160.083 117.727L159.161 118.315Z" fill="black"/>
<path d="M165.103 114.285C164.717 114.589 164.308 114.776 163.879 114.846C163.448 114.916 163.029 114.871 162.623 114.716C162.217 114.562 161.855 114.298 161.536 113.926C161.195 113.525 160.978 113.117 160.886 112.695C160.793 112.274 160.821 111.871 160.968 111.484C161.115 111.098 161.374 110.757 161.751 110.463C162.147 110.151 162.558 109.977 162.989 109.934C163.418 109.895 163.837 109.982 164.248 110.201C164.659 110.418 165.036 110.759 165.377 111.223L164.532 111.886L164.278 111.587C163.934 111.19 163.612 110.959 163.313 110.889C163.014 110.819 162.708 110.906 162.399 111.148C162.05 111.422 161.878 111.729 161.885 112.07C161.893 112.411 162.067 112.78 162.406 113.176C162.723 113.548 163.054 113.767 163.398 113.837C163.742 113.906 164.076 113.814 164.403 113.558C164.612 113.393 164.757 113.206 164.831 112.997C164.906 112.79 164.914 112.566 164.851 112.334L165.901 111.915C166.038 112.362 166.03 112.795 165.881 113.216C165.731 113.64 165.474 113.994 165.105 114.285M162.329 113.615L161.8 112.999L164.428 110.936L164.956 111.552L162.329 113.615Z" fill="black"/>
<path d="M168.585 111.163L163.912 106.533L164.704 105.798L169.378 110.428L168.585 111.163Z" fill="black"/>
<path d="M167.144 104.816L166.399 104.161L167.144 103.383L167.887 104.039L167.142 104.816H167.144ZM171.332 108.507L167.695 105.302L168.44 104.525L172.077 107.727L171.332 108.504V108.507Z" fill="black"/>
<path d="M173.929 105.738L168.727 101.868L169.33 101.123L172.07 103.162L172.152 103.062L174.614 104.896L173.929 105.741V105.738ZM176.033 103.147L174.153 101.749C174.031 101.657 173.887 101.564 173.725 101.47C173.563 101.375 173.388 101.305 173.201 101.26C173.014 101.215 172.83 101.22 172.645 101.27C172.461 101.32 172.289 101.445 172.129 101.644C172.045 101.751 171.977 101.868 171.927 101.998C171.88 102.13 171.865 102.27 171.885 102.419C171.905 102.569 171.97 102.726 172.082 102.89C172.194 103.054 172.369 103.224 172.608 103.403L171.987 103.735C171.656 103.488 171.404 103.201 171.235 102.878C171.065 102.554 170.998 102.212 171.033 101.853C171.068 101.495 171.227 101.138 171.511 100.789C171.736 100.513 171.97 100.321 172.212 100.211C172.453 100.104 172.693 100.052 172.929 100.057C173.164 100.062 173.388 100.102 173.597 100.176C173.807 100.251 173.994 100.338 174.156 100.433C174.318 100.53 174.447 100.612 174.542 100.682L176.721 102.304L176.035 103.149L176.033 103.147Z" fill="black"/>
<path d="M179.525 98.4494C179.265 98.8506 178.944 99.1471 178.56 99.3365C178.176 99.5259 177.765 99.6056 177.326 99.5732C176.885 99.5408 176.449 99.3963 176.015 99.1421C175.574 98.8805 175.242 98.569 175.018 98.2027C174.794 97.8389 174.687 97.4477 174.694 97.0365C174.702 96.6253 174.831 96.2217 175.085 95.8279C175.347 95.4218 175.669 95.1252 176.053 94.9383C176.436 94.7489 176.848 94.6692 177.289 94.7016C177.73 94.7315 178.166 94.876 178.6 95.1302C179.036 95.3869 179.365 95.6984 179.592 96.0647C179.819 96.4285 179.928 96.8172 179.921 97.2309C179.916 97.642 179.784 98.0507 179.522 98.4519M178.645 97.9286C178.874 97.5698 178.921 97.2309 178.784 96.9094C178.647 96.588 178.381 96.3114 177.987 96.0771C177.578 95.8354 177.197 95.7332 176.84 95.7656C176.484 95.798 176.192 95.9924 175.965 96.3463C175.811 96.588 175.738 96.8197 175.751 97.0415C175.763 97.2633 175.846 97.4726 176 97.6645C176.152 97.8563 176.362 98.0333 176.626 98.1878C177.035 98.4295 177.416 98.5316 177.772 98.4967C178.129 98.4619 178.42 98.2725 178.642 97.9261" fill="black"/>
<path d="M182.972 92.3991C182.76 92.8253 182.473 93.1517 182.112 93.3785C181.753 93.6052 181.352 93.7248 180.91 93.7373C180.469 93.7498 180.021 93.6526 179.559 93.4408C179.091 93.2265 178.727 92.9499 178.463 92.6085C178.201 92.2671 178.049 91.8933 178.012 91.4821C177.972 91.0735 178.059 90.6598 178.268 90.2387C178.483 89.8101 178.769 89.4811 179.131 89.2544C179.49 89.0276 179.891 88.908 180.332 88.8931C180.773 88.8781 181.224 88.9778 181.683 89.1871C182.144 89.3989 182.508 89.6755 182.772 90.0144C183.037 90.3533 183.189 90.7296 183.228 91.1383C183.268 91.5494 183.181 91.9681 182.969 92.3942M182.04 91.973C182.229 91.5943 182.239 91.2504 182.067 90.9464C181.895 90.6399 181.601 90.3932 181.182 90.2013C180.751 90.0044 180.36 89.9397 180.008 90.0069C179.657 90.0767 179.39 90.2985 179.203 90.6723C179.076 90.9264 179.031 91.1657 179.068 91.385C179.106 91.6042 179.211 91.8036 179.385 91.978C179.559 92.1549 179.786 92.307 180.065 92.4365C180.497 92.6359 180.888 92.6982 181.239 92.6284C181.591 92.5586 181.858 92.3393 182.04 91.973Z" fill="black"/>
<path d="M185.998 84.9084L182.73 83.7995L182.685 83.9241L179.744 82.9273L180.115 81.9231L186.324 84.0287L186 84.9084H185.998ZM185.656 86.2241C185.504 86.6328 185.265 86.9542 184.936 87.1885C184.607 87.4202 184.228 87.5597 183.794 87.5996C183.361 87.642 182.912 87.5847 182.446 87.4277C181.975 87.2682 181.586 87.0414 181.279 86.7449C180.973 86.4508 180.768 86.112 180.671 85.7282C180.571 85.3445 180.599 84.9433 180.756 84.5196C180.913 84.096 181.152 83.7771 181.471 83.5603C181.79 83.346 182.164 83.2263 182.59 83.2039C183.017 83.1815 183.463 83.2488 183.931 83.4083C184.395 83.5652 184.784 83.782 185.1 84.0562C185.417 84.3303 185.629 84.6517 185.736 85.0205C185.843 85.3893 185.816 85.7905 185.654 86.2241M184.784 85.7556C184.883 85.489 184.898 85.2523 184.831 85.0454C184.764 84.8386 184.629 84.6592 184.427 84.5047C184.225 84.3527 183.974 84.2231 183.672 84.1209C183.368 84.0163 183.086 83.964 182.83 83.964C182.573 83.964 182.351 84.0188 182.164 84.1359C181.977 84.253 181.838 84.4374 181.743 84.6891C181.643 84.9557 181.631 85.1999 181.703 85.4192C181.775 85.6385 181.912 85.8304 182.114 85.9898C182.316 86.1518 182.555 86.2789 182.837 86.3761C183.121 86.4733 183.395 86.5206 183.657 86.5156C183.919 86.5131 184.148 86.4509 184.345 86.3288C184.542 86.2066 184.689 86.0148 184.786 85.7581" fill="black"/>
<path d="M187.685 79.7353C187.54 80.3034 187.289 80.732 186.932 81.0261C186.576 81.3176 186.145 81.4472 185.644 81.4098L185.741 80.3234C185.993 80.3234 186.209 80.2486 186.391 80.0966C186.573 79.9446 186.703 79.7278 186.773 79.4462C186.835 79.1995 186.833 78.9977 186.765 78.8382C186.698 78.6787 186.573 78.5791 186.396 78.5367C186.287 78.5118 186.192 78.5143 186.112 78.5491C186.032 78.584 185.94 78.6762 185.836 78.8282C185.731 78.9802 185.586 79.2195 185.404 79.5434C185.2 79.9047 185.006 80.1838 184.826 80.3832C184.644 80.5825 184.457 80.7096 184.263 80.7694C184.068 80.8292 183.852 80.8317 183.612 80.7744C183.313 80.7046 183.071 80.5676 182.887 80.3657C182.703 80.1639 182.585 79.9122 182.536 79.6157C182.483 79.3166 182.506 78.9852 182.6 78.6189C182.693 78.2626 182.83 77.9586 183.017 77.7094C183.201 77.4602 183.423 77.2758 183.68 77.1537C183.936 77.0341 184.213 76.9867 184.512 77.0141L184.44 78.1056C184.228 78.0832 184.046 78.1355 183.886 78.2601C183.729 78.3847 183.612 78.5716 183.533 78.8183C183.455 79.055 183.445 79.2593 183.498 79.4288C183.55 79.5982 183.657 79.7004 183.822 79.7378C183.914 79.7602 183.999 79.7477 184.078 79.7029C184.158 79.658 184.255 79.5534 184.365 79.3889C184.475 79.2244 184.624 78.9728 184.811 78.6389C185.003 78.295 185.19 78.0308 185.369 77.839C185.551 77.6496 185.743 77.525 185.943 77.4677C186.142 77.4104 186.366 77.4104 186.616 77.4677C187.099 77.5798 187.436 77.8365 187.625 78.2377C187.815 78.6389 187.835 79.1347 187.683 79.7278" fill="black"/>
</g>
<defs>
<linearGradient id="paint0_linear_1216_1576" x1="121.778" y1="0.108995" x2="121.778" y2="37.3428" gradientUnits="userSpaceOnUse">
<stop stop-color="#D62828"/>
<stop offset="0.13" stop-color="#D62828"/>
<stop offset="0.54" stop-color="#F77F00"/>
<stop offset="0.55" stop-color="#F68000"/>
<stop offset="0.69" stop-color="#F59600"/>
<stop offset="0.84" stop-color="#F4A300"/>
<stop offset="0.97" stop-color="#F4A800"/>
<stop offset="1" stop-color="#F4A800"/>
</linearGradient>
<clipPath id="clip0_1216_1576">
<rect width="245" height="129" fill="white"/>
</clipPath>
</defs>
</svg>
